<?xml version="1.0" standalone="no"?>
<!DOCTYPE svg PUBLIC "-//W3C//DTD SVG 1.1//EN" "http://www.w3.org/Graphics/SVG/1.1/DTD/svg11.dtd" >
<svg xmlns="http://www.w3.org/2000/svg" xmlns:xlink="http://www.w3.org/1999/xlink" version="1.1">
<metadata>
Created by FontForge 20161013 at Tue May  8 13:07:38 2007
 By ,,,
Copyright (c) 1991 Adobe Systems Incorporated. All Rights Reserved.Perpetua is a trademark of The Monotype Corporation Plc.
</metadata>
<defs>
<font id="Perpetua" horiz-adv-x="458" >
  <font-face 
    font-family="Perpetua"
    font-weight="500"
    font-stretch="normal"
    units-per-em="1000"
    panose-1="0 0 0 0 0 0 0 0 0 0"
    ascent="800"
    descent="-200"
    x-height="353"
    cap-height="573"
    bbox="-152 -303 1006 806"
    underline-thickness="50"
    underline-position="-200"
    unicode-range="U+0020-FB02"
  />
<missing-glyph horiz-adv-x="225" 
 />
    <glyph glyph-name=".notdef" horiz-adv-x="225" 
 />
    <glyph glyph-name=".null" horiz-adv-x="0" 
 />
    <glyph glyph-name="nonmarkingreturn" horiz-adv-x="333" 
 />
    <glyph glyph-name="space" unicode=" " horiz-adv-x="225" 
 />
    <glyph glyph-name="exclam" unicode="!" horiz-adv-x="292" 
d="M155 138h-16l-26 358q-3 45 -3 58q0 23 11 37t28 14q18 0 29.5 -14t11.5 -37q0 -8 -1 -19t-2.5 -23t-1.5 -16zM146 83q20 0 33.5 -13.5t13.5 -33.5t-14 -34t-33 -14q-20 0 -34 14t-14 34q0 19 14 33t34 14z" />
    <glyph glyph-name="quotedbl" unicode="&#x22;" horiz-adv-x="408" 
d="M293 359h-18l-27 158q-6 32 -6 55q0 20 11.5 33t30.5 13t30.5 -13t11.5 -33q0 -23 -6 -55zM132 359h-18l-27 158q-6 32 -6 55q0 20 11.5 33t30.5 13t30.5 -13t11.5 -33q0 -23 -6 -55z" />
    <glyph glyph-name="numbersign" unicode="#" horiz-adv-x="668" 
d="M47 464h163l43 203h43l-43 -203h223l43 203h43l-43 -203h102v-43h-111l-43 -198h154v-43h-163l-43 -203h-43l43 203h-223l-43 -203h-43l43 203h-102v43h111l43 198h-154v43zM244 421l-43 -198h223l43 198h-223z" />
    <glyph glyph-name="dollar" unicode="$" 
d="M227 538v-37q60 -1 111 -35l-15 -102h-17q4 49 -17 81t-62 38v-181q79 -54 108 -91t29 -80q0 -44 -34 -88.5t-103 -47.5v-103h-17v103q-69 1 -123 40l22 112h17q-5 -60 14.5 -92.5t69.5 -39.5v217q-59 38 -84 72.5t-25 78.5q0 48 28 78.5t81 39.5v37h17zM210 314v169
q-29 -5 -46 -24t-17 -50q0 -56 63 -95zM227 219v-204q41 1 61.5 32.5t20.5 61.5q0 62 -82 110z" />
    <glyph glyph-name="percent" unicode="%" horiz-adv-x="750" 
d="M222 426q0 64 -19 99.5t-51 35.5q-33 0 -51.5 -35.5t-18.5 -103.5q0 -62 19.5 -96.5t50.5 -34.5q32 0 51 35.5t19 99.5zM275 426q0 -70 -35 -115.5t-88 -45.5t-88 45.5t-35 115.5t35 115.5t88 45.5t88 -45.5t35 -115.5zM600 587l-416 -587h-34l416 587h34zM721 156
q0 -70 -35 -115.5t-88 -45.5t-88 45.5t-35 115.5t35 115.5t88 45.5t88 -45.5t35 -115.5zM668 156q0 64 -19 99.5t-51 35.5q-33 0 -51.5 -35.5t-18.5 -103.5q0 -62 19.5 -96.5t50.5 -34.5q32 0 51 35.5t19 99.5z" />
    <glyph glyph-name="ampersand" unicode="&#x26;" horiz-adv-x="615" 
d="M561 343v-17q-27 0 -37.5 -3t-23.5 -16q-20 -20 -42.5 -78t-44.5 -92q23 -29 35 -43.5t29.5 -33t30 -26t22.5 -7.5q17 0 39 20l13 -11q-34 -50 -91 -50q-21 0 -40.5 10t-30 20t-28.5 30t-24 26q-70 -86 -166 -86q-67 0 -113.5 41.5t-46.5 100.5q0 91 125 161
q-64 60 -64 126q0 57 38.5 94t97.5 37q48 0 81.5 -30.5t33.5 -73.5q0 -73 -103 -127q62 -53 147 -158q42 73 42 120q0 26 -9 37t-33 12v17h163zM152 447q0 -27 24 -59.5t60 -60.5q66 38 66 108q0 36 -21 59t-55 23q-32 0 -53 -19.5t-21 -50.5zM111 163q0 -50 41 -91.5
t91 -41.5q58 0 112 61q-95 117 -173 183q-32 -17 -51.5 -48t-19.5 -63z" />
    <glyph glyph-name="quotesingle" unicode="'" horiz-adv-x="180" 
d="M99 359h-18l-27 158q-6 32 -6 55q0 20 11.5 33t30.5 13t30.5 -13t11.5 -33q0 -23 -6 -55z" />
    <glyph glyph-name="parenleft" unicode="(" horiz-adv-x="313" 
d="M272 573l10 -13q-81 -87 -117 -176.5t-36 -204.5q0 -128 36.5 -216.5t116.5 -172.5l-10 -13q-102 90 -159.5 195.5t-57.5 201.5q0 100 63.5 212.5t153.5 186.5z" />
    <glyph glyph-name="parenright" unicode=")" horiz-adv-x="313" 
d="M42 -223l-11 13q81 87 117 176.5t36 204.5q0 125 -35.5 216t-117.5 173l11 13q102 -90 159 -195.5t57 -201.5q0 -106 -67.5 -220t-148.5 -179z" />
    <glyph glyph-name="asterisk" unicode="*" 
d="M239 393q22 7 44.5 31t44 44t44.5 20q14 0 24.5 -8.5t10.5 -19.5q0 -27 -23 -39.5t-67 -23t-68 -23.5q39 -19 81.5 -28.5t57.5 -24.5q17 -17 17 -34q0 -12 -9 -20.5t-21 -8.5q-28 0 -76.5 44t-59.5 51q0 -28 12 -73.5t12 -59.5q0 -19 -11 -32.5t-25 -13.5t-24 13t-10 31
q0 20 13 62t13 73q-23 -12 -63 -52.5t-69 -40.5q-16 0 -25.5 8t-9.5 21q0 28 28.5 41.5t70.5 22.5t58 21q-20 13 -62.5 23.5t-67.5 23.5t-25 39q0 30 29 30q31 0 74.5 -46t61.5 -51q0 33 -12 70t-12 60q0 20 10 34.5t25 14.5q16 0 25.5 -13.5t9.5 -36.5q0 -19 -13 -59
t-13 -70z" />
    <glyph glyph-name="plus" unicode="+" horiz-adv-x="667" 
d="M71 341h241v241h43v-241h241v-43h-241v-241h-43v241h-241v43z" />
    <glyph glyph-name="comma" unicode="," horiz-adv-x="292" 
d="M88 -172v17q39 20 54.5 45t15.5 67q0 12 -3.5 15t-14.5 3q-22 0 -37 14t-15 34q0 19 14 33t34 14q33 0 53.5 -27t20.5 -69q0 -52 -34 -92.5t-88 -53.5z" />
    <glyph glyph-name="hyphen" unicode="-" horiz-adv-x="313" 
d="M254 195v-38h-196v38h196z" />
    <glyph glyph-name="period" unicode="." horiz-adv-x="292" 
d="M146 70q20 0 33.5 -14t13.5 -33q0 -20 -14 -34t-33 -14q-20 0 -34 14.5t-14 33.5t14 33t34 14z" />
    <glyph glyph-name="slash" unicode="/" horiz-adv-x="500" 
d="M373 595h46l-292 -607h-46z" />
    <glyph glyph-name="zero" unicode="0" 
d="M427 288q0 -145 -61 -222t-137 -77q-78 0 -138.5 78t-60.5 223q0 139 60 218t139 79q78 0 138 -79t60 -220zM351 288q0 53 -6 99t-19 86.5t-38 64t-59 23.5q-33 0 -58 -23t-38.5 -62.5t-20 -86.5t-6.5 -101q0 -124 31 -198.5t92 -74.5q57 0 89.5 69.5t32.5 203.5z" />
    <glyph glyph-name="one" unicode="1" 
d="M267 585v-507q0 -40 11 -51.5t48 -11.5v-15h-184v15q36 0 47.5 11.5t11.5 51.5v393q0 20 -8 20q-2 0 -13.5 -4.5t-29 -9.5t-35.5 -6v17q110 58 135 97h17z" />
    <glyph glyph-name="two" unicode="2" 
d="M386 41v-41h-328v20q143 147 194 229.5t51 150.5q0 61 -28 96.5t-77 35.5q-40 0 -70 -26t-35 -78h-17q1 50 42 104.5t110 54.5q59 0 102 -45t43 -115q0 -79 -62 -167.5t-207 -218.5h282z" />
    <glyph glyph-name="three" unicode="3" 
d="M106 493l-16 7q14 40 50.5 63.5t83.5 23.5q59 0 99 -36.5t40 -91.5q0 -90 -102 -133v-2q60 -16 93.5 -57.5t33.5 -100.5q0 -79 -50 -128t-130 -49q-44 0 -76 14t-67 49l12 12q58 -47 113 -47q52 0 89.5 32.5t37.5 89.5q0 52 -35.5 103.5t-103.5 51.5q-10 0 -58 -3v17
q176 31 176 145q0 42 -28 71t-70 29q-29 0 -54 -16t-38 -44z" />
    <glyph glyph-name="four" unicode="4" 
d="M302 189v-197h-60v197h-236v17l279 381h17v-352h141v-46h-141zM242 236v243h-2l-178 -244z" />
    <glyph glyph-name="five" unicode="5" 
d="M156 519l-6 -203q57 8 102.5 -3.5t71.5 -36.5t39 -55t13 -62q0 -73 -50 -121.5t-125 -48.5q-95 0 -155 82l15 9q47 -57 111 -57q55 0 92.5 36.5t37.5 90.5q0 57 -46.5 94t-136.5 25l9 304h243v-54h-215z" />
    <glyph glyph-name="six" unicode="6" 
d="M411 588v-17q-128 -23 -204.5 -105t-87.5 -207q67 63 141 63q68 0 112 -46t44 -117q0 -72 -51.5 -121t-127.5 -49q-84 0 -139 63.5t-55 161.5q0 150 103.5 254.5t264.5 119.5zM347 141q0 62 -32 99.5t-85 37.5q-57 0 -111 -49q-1 -102 35 -158t93 -56q44 0 72 35.5
t28 90.5z" />
    <glyph glyph-name="seven" unicode="7" 
d="M33 445l31 147h17q5 -12 10 -15q7 -4 22 -4h316v-20l-197 -561h-72l222 525h-251q-27 0 -41.5 -13t-39.5 -59h-17z" />
    <glyph glyph-name="eight" unicode="8" 
d="M74 445q0 63 43 102.5t111 39.5q64 0 106.5 -37.5t42.5 -93.5q0 -82 -99 -137q113 -78 113 -176q0 -65 -49 -109.5t-120 -44.5q-72 0 -118 39.5t-46 100.5q0 48 29.5 85t95.5 73q-109 57 -109 158zM128 477q0 -38 30.5 -71.5t101.5 -74.5q65 34 65 113q0 54 -29 87.5
t-75 33.5q-40 0 -66.5 -25t-26.5 -63zM114 141q0 -53 33 -88.5t82 -35.5q44 0 73.5 28t29.5 71q0 85 -131 154q-87 -41 -87 -129z" />
    <glyph glyph-name="nine" unicode="9" 
d="M48 -10v17q123 17 203.5 102.5t89.5 209.5q-67 -63 -142 -63q-68 0 -112 46t-44 116q0 72 51.5 120.5t128.5 48.5q84 0 138.5 -63.5t54.5 -160.5q0 -152 -106 -255.5t-262 -117.5zM112 436q0 -62 32.5 -99.5t85.5 -37.5q58 0 111 50q1 105 -36 158.5t-92 53.5
q-44 0 -72.5 -35t-28.5 -90z" />
    <glyph glyph-name="colon" unicode=":" horiz-adv-x="292" 
d="M146 328q20 0 33.5 -14t13.5 -33q0 -20 -14 -34t-33 -14q-20 0 -34 14.5t-14 33.5t14 33t34 14zM146 70q20 0 33.5 -14t13.5 -33q0 -20 -14 -34t-33 -14q-20 0 -34 14.5t-14 33.5t14 33t34 14z" />
    <glyph glyph-name="semicolon" unicode=";" horiz-adv-x="292" 
d="M88 -172v17q39 19 54.5 44.5t15.5 67.5q0 12 -3.5 15t-14.5 3q-22 0 -37 14t-15 34q0 19 14 33t34 14q33 0 53.5 -27t20.5 -69q0 -52 -34 -92.5t-88 -53.5zM146 328q20 0 33.5 -14t13.5 -33q0 -20 -14 -34t-33 -14q-20 0 -34 14.5t-14 33.5t14 33t34 14z" />
    <glyph glyph-name="less" unicode="&#x3c;" horiz-adv-x="667" 
d="M71 302v38l525 221v-47l-468 -193l468 -193v-47z" />
    <glyph glyph-name="equal" unicode="=" horiz-adv-x="667" 
d="M71 457h525v-43h-525v43zM71 231h525v-43h-525v43z" />
    <glyph glyph-name="greater" unicode="&#x3e;" horiz-adv-x="667" 
d="M596 302l-525 -221v47l468 193l-468 193v47l525 -221v-38z" />
    <glyph glyph-name="question" unicode="?" horiz-adv-x="313" 
d="M140 119h-19v111q0 29 14 52.5t33.5 40t39.5 32t34 36.5t14 45q0 35 -29 56.5t-76 21.5q-29 0 -49 -8t-47 -30v23q40 59 102 59q53 0 89.5 -45.5t36.5 -111.5q0 -36 -10.5 -62.5t-26.5 -41.5t-34.5 -30t-34.5 -28t-26.5 -35.5t-10.5 -53.5v-31zM139 83q19 0 33 -13.5
t14 -33.5t-14 -34t-33 -14t-33.5 14t-14.5 34q0 19 14 33t34 14z" />
    <glyph glyph-name="at" unicode="@" horiz-adv-x="921" 
d="M683 464l-99 -344q-11 -40 1 -59.5t39 -19.5q69 0 139.5 93t70.5 223q0 139 -88.5 225t-231.5 86q-99 0 -181 -42t-134 -110t-80 -151.5t-28 -170.5q0 -73 25.5 -141.5t72.5 -123.5t122 -88t167 -33q133 0 241 75t153 197h27q-48 -135 -163 -216.5t-259 -81.5
q-187 0 -306 123t-119 315q0 200 133 336.5t329 136.5q156 0 250 -91.5t94 -247.5q0 -143 -81 -244.5t-177 -101.5q-81 0 -81 69q0 10 12 73l-2 2q-55 -72 -98.5 -105.5t-85.5 -33.5q-43 0 -69 30.5t-26 81.5q0 79 48 161t110.5 131.5t110.5 49.5q36 0 55.5 -15.5
t29.5 -52.5h2l11 56zM380 66q66 0 136.5 104t70.5 199q0 36 -18 56t-52 20q-41 0 -88 -52t-78.5 -125t-31.5 -133q0 -31 16.5 -50t44.5 -19z" />
    <glyph glyph-name="A" unicode="A" horiz-adv-x="594" 
d="M415 73l-52 159h-185l-39 -115q-18 -42 -14 -70.5t45 -29.5v-17h-148v17q37 6 53.5 25.5t31.5 64.5l158 472h59l166 -493q13 -41 29 -55t53 -14v-17h-202v17q64 0 45 56zM350 267l-79 243h-2l-80 -243h161z" />
    <glyph glyph-name="B" unicode="B" horiz-adv-x="510" 
d="M100 108v357q0 54 -14 72.5t-51 18.5v17h216q98 0 148.5 -40.5t50.5 -99.5q0 -92 -115 -130v-2q66 -13 107 -58t41 -103q0 -64 -51 -102t-133 -38h-264v17q36 0 50.5 19.5t14.5 71.5zM176 308h59q62 0 98.5 33t36.5 87q0 56 -35 89.5t-102 33.5h-57v-243zM176 286v-168
q0 -57 12.5 -76.5t46.5 -19.5h47q47 0 80 32t33 91q0 63 -45 102t-120 39h-54z" />
    <glyph glyph-name="C" unicode="C" horiz-adv-x="615" 
d="M564 410h-17q-21 80 -66 117.5t-120 37.5q-100 0 -156 -72t-56 -186q0 -128 60.5 -206.5t157.5 -78.5q135 0 200 126l15 -14q-29 -68 -93 -108t-146 -40q-72 0 -134.5 30.5t-105 97t-42.5 157.5q0 137 84 226.5t212 89.5q41 0 94.5 -12t65.5 -12q22 0 31 18h16v-171z" />
    <glyph glyph-name="D" unicode="D" horiz-adv-x="667" 
d="M96 108v357q0 51 -14.5 71t-50.5 20v17h265q79 0 142.5 -25t102 -67.5t58.5 -94.5t20 -109q0 -118 -79 -197.5t-237 -79.5h-272v17q35 0 50 19.5t15 71.5zM172 551v-423q0 -64 15.5 -85t57.5 -21h59q106 0 166.5 68t60.5 186q0 54 -14 101.5t-42.5 87t-78.5 63t-115 23.5
h-109z" />
    <glyph glyph-name="E" unicode="E" horiz-adv-x="510" 
d="M414 356v-139h-17q-9 37 -22.5 46t-57.5 9h-142v-205q0 -21 9 -30t33 -9h100q66 0 90.5 12.5t48.5 66.5h17l-26 -107h-413v17q36 0 50.5 18t14.5 72v358q0 53 -14 72t-51 19v17h413v-96h-11q-9 45 -27.5 56.5t-68.5 11.5h-165v-245h160q31 0 43.5 10.5t18.5 45.5h17z" />
    <glyph glyph-name="F" unicode="F" 
d="M176 277v-169q0 -52 14.5 -71.5t50.5 -19.5v-17h-206v17q37 0 51 19.5t14 71.5v357q0 53 -14 72t-51 19v17h393v-102h-13q-10 50 -27 62t-66 12h-146v-240h149q31 0 45.5 16t18.5 52h16v-161h-16q-3 65 -62 65h-151z" />
    <glyph glyph-name="G" unicode="G" horiz-adv-x="656" 
d="M555 154v-154q-50 -14 -160 -14q-90 0 -158 25.5t-105 67.5t-55 90t-18 101q0 97 45 171t111 110t139 36q45 0 92 -13.5t64 -13.5q24 0 32 19h18v-169h-16q-10 76 -67 115.5t-123 39.5q-90 0 -148.5 -72t-58.5 -188q0 -126 67 -209t169 -83q96 0 96 61v62q0 53 -14 74
t-49 21h-22v17h232v-17q-40 0 -55.5 -18.5t-15.5 -58.5z" />
    <glyph glyph-name="H" unicode="H" horiz-adv-x="667" 
d="M489 274h-312v-166q0 -51 14.5 -71t51.5 -20v-17h-207v17q35 0 50 18.5t15 72.5v357q0 52 -13.5 71.5t-51.5 19.5v17h207v-17q-35 0 -50.5 -19t-15.5 -72v-163h312v163q0 52 -13.5 71.5t-50.5 19.5v17h205v-17q-37 0 -51 -20t-14 -71v-357q0 -51 14 -71t51 -20v-17h-205
v17q36 0 50 18t14 73v166z" />
    <glyph glyph-name="I" unicode="I" horiz-adv-x="260" 
d="M168 465v-357q0 -52 14.5 -71.5t50.5 -19.5v-17h-206v17q36 0 50.5 19t14.5 72v357q0 53 -14 72t-51 19v17h206v-17q-36 0 -50.5 -20t-14.5 -71z" />
    <glyph glyph-name="J" unicode="J" horiz-adv-x="323" 
d="M217 465v-529q0 -81 -42.5 -119.5t-100.5 -38.5q-62 0 -94 51l14 10q20 -26 52 -26q35 0 65 32.5t30 108.5v511q0 52 -14 71.5t-52 19.5v17h207v-17q-37 0 -51 -20t-14 -71z" />
    <glyph glyph-name="K" unicode="K" horiz-adv-x="615" 
d="M104 108v357q0 54 -14.5 72.5t-50.5 18.5v17h205v-17q-35 0 -49.5 -19.5t-14.5 -71.5v-173l187 184q30 30 30 48q0 25 -36 32v17h216v-17h-28q-58 0 -121 -63l-178 -176l237 -240q36 -37 55 -47.5t52 -12.5v-17h-136l-278 281v-173q0 -54 14.5 -72.5t49.5 -18.5v-17h-205
v17q35 0 50 18.5t15 72.5z" />
    <glyph glyph-name="L" unicode="L" horiz-adv-x="500" 
d="M493 125l-35 -125h-415v17q35 0 50 21.5t15 74.5v360q0 48 -14.5 65.5t-50.5 17.5v17h205v-17q-35 0 -49.5 -21.5t-14.5 -68.5v-383q0 -33 14 -44t51 -11h114q52 0 73 18t40 79h17z" />
    <glyph glyph-name="M" unicode="M" horiz-adv-x="771" 
d="M707 573v-17q-70 -1 -64 -89l29 -353q5 -54 18.5 -73.5t52.5 -23.5v-17h-206v17q36 6 49 25t10 61l-28 370h-2l-196 -473h-15l-192 473h-2l-32 -353q-8 -88 74 -103v-17h-178v17q40 6 54 29t19 76l35 394q-30 33 -75 40v17h145l183 -451l186 451h135z" />
    <glyph glyph-name="N" unicode="N" horiz-adv-x="667" 
d="M555 466v-466h-17l-404 498h-2v-402q0 -43 17.5 -61t57.5 -18v-17h-174v17q39 0 55 19.5t16 78.5v335q0 51 -18 76.5t-67 29.5v17h147l358 -446h2v335q0 55 -15.5 74.5t-54.5 19.5v17h173v-17q-42 0 -58 -20t-16 -70z" />
    <glyph glyph-name="O" unicode="O" horiz-adv-x="729" 
d="M59 289q0 127 88 212.5t219 85.5q128 0 216 -86.5t88 -211.5q0 -127 -89 -215t-217 -88t-216.5 88t-88.5 215zM147 288q0 -125 59.5 -202.5t156.5 -77.5q102 0 160.5 82t58.5 194q0 131 -61 206t-153 75q-101 0 -161 -76t-60 -201z" />
    <glyph glyph-name="P" unicode="P" horiz-adv-x="500" 
d="M179 268v-160q0 -52 14 -71.5t51 -19.5v-17h-206v17q33 0 49 18t16 71v359q0 52 -14.5 71.5t-50.5 19.5v17h209q110 0 166 -48.5t56 -114.5q0 -71 -52.5 -109.5t-149.5 -38.5q-38 0 -88 6zM179 551v-257q29 -10 71 -10q64 0 101.5 33t37.5 91q0 55 -34 99t-105 44h-71z
" />
    <glyph glyph-name="Q" unicode="Q" horiz-adv-x="719" 
d="M663 287q0 -106 -68.5 -189t-176.5 -105q9 -7 44.5 -52t76 -76.5t84.5 -31.5q27 0 52 9l6 -16q-42 -19 -95 -19q-63 0 -113.5 24.5t-77 54.5t-56 63t-50.5 44q-92 19 -165.5 100t-73.5 194q0 119 85.5 209.5t218.5 90.5q131 0 220 -86.5t89 -213.5zM575 282
q0 142 -64 212.5t-151 70.5q-101 0 -161.5 -76t-60.5 -203q0 -123 60 -200.5t156 -77.5q100 0 160.5 74.5t60.5 199.5z" />
    <glyph glyph-name="R" unicode="R" horiz-adv-x="594" 
d="M175 265v-157q0 -52 14.5 -71.5t50.5 -19.5v-17h-206v17q35 0 50 18t15 73v359q0 54 -14.5 71.5t-50.5 17.5v17h235q91 0 141 -44t50 -106q0 -106 -118 -141q35 -23 68.5 -69t55 -87t52 -74t62.5 -35v-17h-117q-36 44 -82 120.5t-79.5 110.5t-80.5 34h-46zM175 551v-262
h70q68 0 101.5 38.5t33.5 93.5q0 58 -40 94t-105 36h-60z" />
    <glyph glyph-name="S" unicode="S" horiz-adv-x="417" 
d="M356 581v-134h-17q-6 60 -42.5 89t-84.5 29q-46 0 -74.5 -23.5t-28.5 -62.5q0 -37 25 -67.5t57.5 -49t76.5 -46.5t69 -53q50 -50 50 -114q0 -67 -47.5 -115t-115.5 -48q-36 0 -81.5 15t-49.5 15q-15 0 -22 -22h-17v155h17q1 -71 45.5 -106t92.5 -35q52 0 83.5 28t31.5 74
q0 34 -26 65.5t-58.5 51.5t-73.5 46.5t-60 45.5q-49 49 -49 120q0 66 43 107t113 41q35 0 70.5 -11t41.5 -11q7 0 9.5 3t5.5 13h16z" />
    <glyph glyph-name="T" unicode="T" horiz-adv-x="563" 
d="M318 545v-440q0 -52 12.5 -70t49.5 -18v-17h-203v17q34 0 49.5 18t15.5 73v437h-83q-58 0 -85.5 -19t-31.5 -63h-17v131h17q12 -11 31 -16q22 -5 55 -5h300q66 0 91 21h18v-131h-11q-10 42 -34 62t-87 20h-87z" />
    <glyph glyph-name="U" unicode="U" horiz-adv-x="667" 
d="M488 0v80q-81 -94 -191 -94q-97 0 -146 57.5t-49 139.5v282q0 55 -14.5 73t-50.5 18v17h207v-17q-37 0 -51.5 -18.5t-14.5 -71.5v-290q0 -68 37.5 -109.5t108.5 -41.5q103 0 164 95v345q0 50 -13.5 70t-47.5 21v17h202v-17q-36 0 -50.5 -20t-14.5 -71v-357
q0 -54 15 -72.5t50 -18.5v-17h-141z" />
    <glyph glyph-name="V" unicode="V" horiz-adv-x="594" 
d="M476 444l-169 -452h-16l-177 465q-22 57 -39.5 77.5t-55.5 21.5v17h208v-17q-32 0 -44 -17t0 -50l140 -370l133 357q29 80 -43 80v17h167v-18q-63 0 -104 -111z" />
    <glyph glyph-name="W" unicode="W" horiz-adv-x="917" 
d="M795 440l-161 -448h-18l-156 423l-152 -423h-16l-175 473q-23 62 -40.5 76.5t-56.5 14.5v17h212v-17q-36 -4 -45.5 -19t2.5 -50l134 -364l122 333l-13 37q-12 36 -30 49.5t-50 13.5v17h210v-17q-40 0 -51 -15.5t3 -54.5l134 -363l117 321q42 113 -43 113v16h174v-17
q-34 -2 -56 -27.5t-45 -88.5z" />
    <glyph glyph-name="X" unicode="X" horiz-adv-x="615" 
d="M340 311l146 -199q39 -53 61 -71.5t53 -23.5v-17h-230v17q36 1 42.5 29.5t-19.5 64.5l-101 139l-110 -143q-29 -35 -25.5 -60.5t44.5 -29.5v-17h-183v17q29 0 51 13t53 53l151 193l-138 191q-41 56 -65 72.5t-52 16.5v17h220v-17q-32 0 -39.5 -19t12.5 -47l109 -151
l107 135q18 22 23.5 40t-5 30t-39.5 12v17h183v-17q-38 0 -58 -12.5t-49 -49.5z" />
    <glyph glyph-name="Y" unicode="Y" horiz-adv-x="563" 
d="M318 288v-180q0 -52 13 -71.5t50 -19.5v-17h-209v17q37 0 53.5 17t16.5 74v180l-122 190q-30 47 -49 61.5t-53 16.5v17h224v-17q-84 0 -47 -57l113 -174l91 144q23 34 19.5 60.5t-37.5 26.5v17h157v-17q-33 -2 -50 -14.5t-41 -50.5z" />
    <glyph glyph-name="Z" unicode="Z" horiz-adv-x="563" 
d="M532 138l-21 -138h-480v15l377 530h-247q-55 0 -78.5 -14.5t-35.5 -55.5h-16l9 98h466v-18l-375 -527h216q72 0 110.5 25.5t57.5 84.5h17z" />
    <glyph glyph-name="bracketleft" unicode="[" horiz-adv-x="260" 
d="M68 573h159v-18h-30q-16 0 -30.5 -9t-21.5 -22q-4 -7 -7 -30q-1 -7 -1 -27v-561q0 -9 2 -37q3 -22 19 -36.5t39 -14.5h30v-18h-159v773z" />
    <glyph glyph-name="backslash" unicode="\" horiz-adv-x="500" 
d="M127 595l292 -607h-46l-292 607h46z" />
    <glyph glyph-name="bracketright" unicode="]" horiz-adv-x="260" 
d="M192 -200h-159v18h30q35 0 52 31q5 11 6 30q2 14 2 27v561q0 15 -3 37t-19 36.5t-38 14.5h-30v18h159v-773z" />
    <glyph glyph-name="asciicircum" unicode="^" horiz-adv-x="469" 
d="M243 677l208 -350h-45l-171 286l-171 -286h-46l210 350h15z" />
    <glyph glyph-name="underscore" unicode="_" horiz-adv-x="500" 
d="M-9 -75h518v-50h-518v50z" />
    <glyph glyph-name="grave" unicode="`" horiz-adv-x="333" 
d="M144 628l65 -200h-19l-101 200h55z" />
    <glyph glyph-name="a" unicode="a" horiz-adv-x="365" 
d="M294 234v-152q0 -31 4 -43t16 -12q13 0 24 34h17q-2 -33 -20.5 -52.5t-48.5 -19.5q-43 0 -60 50q-26 -28 -46.5 -39t-48.5 -11q-41 0 -71 27.5t-30 66.5q0 45 34 68.5t89.5 38t72.5 24.5v26q0 38 -21 62t-58 24q-32 0 -57.5 -19.5t-36.5 -56.5l-18 5q11 49 47 79t84 30
q51 0 89.5 -32t38.5 -98zM226 72v120q-15 -6 -38.5 -14t-36 -13.5t-26.5 -14.5t-20 -23t-6 -35q0 -27 16 -46t38 -19q18 0 40.5 12t32.5 33z" />
    <glyph glyph-name="b" unicode="b" horiz-adv-x="448" 
d="M130 628v-317q48 53 119 53q69 0 116.5 -50t47.5 -123q0 -34 -12.5 -66.5t-39 -62t-75.5 -48t-114 -18.5q-44 0 -110 11v531q0 41 -10.5 51t-52.5 10v17l114 12h17zM130 285v-202q0 -37 12.5 -53t47.5 -16q64 0 106.5 42t42.5 127q0 71 -36.5 111.5t-81.5 40.5
q-51 0 -91 -50z" />
    <glyph glyph-name="c" unicode="c" horiz-adv-x="385" 
d="M359 364v-125h-17q-11 48 -43 76.5t-76 28.5q-53 0 -86 -41t-33 -106q0 -73 39.5 -125.5t93.5 -52.5q78 0 132 74v-26q-57 -78 -156 -78q-79 0 -128.5 50t-49.5 129q0 82 53.5 139t129.5 57q31 0 63 -10t37 -10q15 0 24 20h17z" />
    <glyph glyph-name="d" unicode="d" 
d="M383 628v-559q0 -29 12.5 -40.5t46.5 -11.5v-17h-206q-103 0 -154.5 56t-51.5 128q0 75 48.5 127.5t117.5 52.5q54 0 119 -43v217q0 37 -10 49t-37 12h-20v17l118 12h17zM315 70v213q-44 60 -103 60q-48 0 -78 -40t-30 -104q0 -74 37.5 -128.5t117.5 -54.5q30 0 43 12.5
t13 41.5z" />
    <glyph glyph-name="e" unicode="e" horiz-adv-x="406" 
d="M367 216h-260q-1 -105 45 -152t96 -47q36 0 61 15t64 59v-26q-32 -41 -65.5 -58.5t-80.5 -17.5q-83 0 -137 52t-54 132t51.5 135.5t126.5 55.5q63 0 110 -44t43 -104zM107 233h193q2 54 -27 82t-68 28q-43 0 -69 -30t-29 -80z" />
    <glyph glyph-name="f" unicode="f" horiz-adv-x="260" 
d="M147 327v-257q0 -29 12.5 -41t38.5 -12h17v-17h-201v17h16q27 0 38 10.5t11 36.5v263h-49v17q35 14 49 24v70q0 75 38 132.5t114 57.5q61 0 100 -29l-34 -89h-17q4 48 -15 72.5t-52 24.5q-30 0 -48 -21.5t-18 -61.5v-171h88v-26h-88z" />
    <glyph glyph-name="g" unicode="g" horiz-adv-x="417" 
d="M405 360v-40h-94q40 -49 40 -103q0 -53 -38.5 -95t-93.5 -45q-39 -2 -77 -25t-38 -41q0 -12 7 -20q12 -15 124.5 -35.5t139.5 -47.5q29 -29 29 -63q0 -62 -63 -105t-155 -43q-78 0 -126 29.5t-48 78.5q0 31 25.5 58t89.5 53v2q-77 18 -77 65q0 58 109 97v2q-53 14 -82 49
t-29 85q0 64 42.5 106t107.5 42q13 0 47 -2t46 -2h114zM112 223q0 -58 24 -93t63 -35q40 0 64 34t24 94q0 54 -24 87.5t-63 33.5q-40 0 -64 -33.5t-24 -87.5zM367 -186q0 34 -41.5 53.5t-166.5 40.5q-103 -28 -103 -84q0 -38 51 -63.5t127 -25.5q59 0 96 22t37 57z" />
    <glyph glyph-name="h" unicode="h" horiz-adv-x="438" 
d="M375 241v-156q0 -41 11 -54.5t46 -13.5v-17h-184v17q36 0 47.5 11t11.5 46v175q0 35 -19.5 56t-51.5 21q-56 0 -103 -67v-194q0 -28 13 -38t46 -10v-17h-190v17q40 1 51.5 13t11.5 55v461q0 34 -12 43.5t-51 9.5v17l114 12h17v-335q34 39 62 55t62 16q48 0 83 -32t35 -91
z" />
    <glyph glyph-name="i" unicode="i" horiz-adv-x="229" 
d="M149 364v-298q0 -28 11.5 -38.5t47.5 -10.5v-17h-194v17q41 0 54 9t13 40v217q0 35 -13 44t-54 9v17l118 11h17zM116 547q18 0 30.5 -12.5t12.5 -30.5t-12.5 -31t-30.5 -13t-31 13t-13 31t13 30.5t31 12.5z" />
    <glyph glyph-name="j" unicode="j" horiz-adv-x="229" 
d="M155 364v-420q0 -187 -195 -183v17q67 -1 97 35t30 121v357q0 27 -13 36t-54 9v17l118 11h17zM116 547q18 0 30.5 -12.5t12.5 -30.5t-12.5 -31t-30.5 -13t-31 13t-13 31t13 30.5t31 12.5z" />
    <glyph glyph-name="k" unicode="k" horiz-adv-x="438" 
d="M206 209l147 -147q25 -25 43 -34.5t44 -10.5v-17h-116l-184 180v-113q0 -30 12.5 -40t46.5 -10v-17h-190v17q41 1 52 13t11 55v466q0 31 -11.5 39.5t-51.5 8.5v17l114 12h17v-448l95 87q30 25 27.5 46.5t-43.5 22.5v17h193v-17h-17q-51 0 -97 -43z" />
    <glyph glyph-name="l" unicode="l" horiz-adv-x="240" 
d="M88 84v467q0 26 -10.5 37t-37.5 11h-23v17l122 12h17v-561q0 -29 11.5 -39.5t43.5 -10.5h9v-17h-197v17h18q27 0 37 14t10 53z" />
    <glyph glyph-name="m" unicode="m" horiz-adv-x="719" 
d="M637 244v-178q0 -28 12.5 -38.5t47.5 -10.5v-17h-188v17q38 0 49 12.5t11 55.5v168q0 34 -20.5 53.5t-56.5 19.5q-55 0 -100 -68v-190q0 -29 12 -40t47 -11v-17h-186v17q38 0 48.5 11t10.5 57v164q0 37 -22 57t-53 20q-29 0 -56.5 -18.5t-45.5 -49.5v-193q0 -27 13 -38
t47 -11v-16h-188v17q35 0 47.5 10t12.5 47v210q0 28 -12 40t-37 12h-22v17l122 11h17v-74h2q22 34 56.5 54t69.5 20q37 0 67.5 -20.5t43.5 -59.5q57 80 131 80q46 0 83 -29t37 -91z" />
    <glyph glyph-name="n" unicode="n" 
d="M385 237v-160q0 -35 11.5 -47.5t48.5 -12.5v-17h-189v17q36 0 48.5 9.5t12.5 34.5v185q0 40 -23.5 60.5t-55.5 20.5q-50 0 -101 -69v-173q0 -42 10.5 -55t49.5 -13v-17h-187v17q37 0 48 11t11 57v199q0 32 -11.5 42t-47.5 10v17l110 11h17v-71q62 71 128 71
q48 0 84 -33.5t36 -93.5z" />
    <glyph glyph-name="o" unicode="o" 
d="M423 176q0 -80 -55.5 -133.5t-138.5 -53.5t-138.5 53.5t-55.5 133.5q0 81 55.5 134.5t138.5 53.5t138.5 -53.5t55.5 -134.5zM349 176q0 72 -31 120t-89 48q-56 0 -88 -45.5t-32 -122.5q0 -73 30.5 -120t89.5 -47t89.5 48.5t30.5 118.5z" />
    <glyph glyph-name="p" unicode="p" 
d="M71 -212v493q0 36 -11 45.5t-51 9.5v17l113 11h17v-60q61 60 123 60q69 0 114.5 -52.5t45.5 -132.5q0 -82 -50 -136t-126 -54q-53 0 -107 42v-233q0 -34 11.5 -46.5t47.5 -12.5v-17h-189v17q36 0 49 10t13 39zM139 278v-222q42 -44 98 -44q47 0 79 44.5t32 110.5
q0 71 -32 117.5t-81 46.5q-50 0 -96 -53z" />
    <glyph glyph-name="q" unicode="q" horiz-adv-x="448" 
d="M378 348v-558q0 -30 12.5 -40.5t48.5 -10.5v-17h-187v17q33 0 45.5 10.5t12.5 39.5v228q-49 -28 -105 -28q-78 0 -127 48.5t-49 127.5q0 82 57.5 135t182.5 53q29 0 109 -5zM310 39v284q-24 5 -47 5q-74 0 -117 -42t-43 -114q0 -60 32.5 -108t96.5 -48q36 0 78 23z" />
    <glyph glyph-name="r" unicode="r" horiz-adv-x="344" 
d="M148 261v-194q0 -29 12 -39.5t47 -10.5v-17h-187v17q39 0 49.5 13t10.5 55v193q0 38 -13.5 48t-59.5 10v17l124 11h17v-77q89 77 121 77q33 0 65 -28l-27 -63q-56 31 -84 31q-31 0 -75 -43z" />
    <glyph glyph-name="s" unicode="s" horiz-adv-x="313" 
d="M262 255h-20q-5 42 -30 65.5t-58 23.5q-26 0 -42.5 -13t-16.5 -35q0 -25 19 -42t46.5 -29t55 -25.5t46.5 -39t19 -62.5q0 -44 -33 -76.5t-79 -32.5q-22 0 -53 13t-37 13q-21 0 -23 -24h-17v121h17q10 -51 43.5 -77t70.5 -26q26 0 44 17.5t18 43.5q0 33 -29.5 55t-64.5 33
t-64.5 37.5t-29.5 66.5q0 41 32 71.5t76 30.5q20 0 41 -8.5t31 -8.5q14 0 21 17h17v-109z" />
    <glyph glyph-name="t" unicode="t" horiz-adv-x="292" 
d="M151 474v-119h123v-26h-123v-228q0 -36 17 -55t47 -19q36 0 66 34l11 -13q-47 -59 -107 -59q-45 0 -73.5 28.5t-28.5 74.5v237h-67v17q73 36 118 128h17z" />
    <glyph glyph-name="u" unicode="u" 
d="M385 364v-297q0 -29 12.5 -39.5t48.5 -10.5v-17l-129 -7v65h-2q-53 -69 -124 -69q-52 0 -84 34t-32 85v181q0 26 -13 36.5t-50 10.5v17l114 11h17v-253q0 -37 22 -58.5t58 -21.5q51 0 94 58v191q0 37 -11.5 46t-57.5 10v17l120 11h17z" />
    <glyph glyph-name="v" unicode="v" horiz-adv-x="417" 
d="M160 275l79 -189l69 179q15 34 8.5 51t-43.5 20v17h130v-17q-30 -3 -42.5 -12.5t-25.5 -38.5l-114 -293h-17l-113 278q-18 43 -30.5 53.5t-44.5 12.5v17h171v-17q-50 -4 -27 -61z" />
    <glyph glyph-name="w" unicode="w" horiz-adv-x="667" 
d="M157 284l80 -198l83 213q-11 22 -21 29t-31 8v17h171v-17q-60 -1 -40 -51l79 -199l73 185q14 33 6 48.5t-42 16.5v17h138v-17q-36 0 -50.5 -11t-31.5 -54l-110 -279h-17l-113 279l-111 -279h-17l-124 305q-15 39 -65 39v17h172v-17q-29 -1 -35 -12t6 -40z" />
    <glyph glyph-name="x" unicode="x" 
d="M256 199l107 -140q32 -42 79 -42v-17h-186v17q43 7 16 44l-62 85l-63 -79q-16 -19 -13 -34t25 -16v-17h-144v17q36 0 54 9.5t51 48.5l77 91l-84 110q-27 35 -45.5 46.5t-52.5 13.5v17h195v-17q-52 -4 -17 -53l47 -66l48 59q20 22 18.5 41t-27.5 19v17h140v-17
q-33 -4 -52.5 -16.5t-51.5 -50.5z" />
    <glyph glyph-name="y" unicode="y" horiz-adv-x="417" 
d="M161 282l85 -200l62 187q12 31 6 48.5t-34 18.5v17h125v-17q-28 0 -47 -19.5t-34 -63.5l-141 -417q-21 -60 -52.5 -94.5t-64.5 -34.5q-19 0 -44 15l23 61q19 -8 34 -8q32 0 52.5 20t37.5 67l46 128l-127 293q-14 31 -28 41.5t-44 11.5v17h170v-17q-45 -7 -25 -54z" />
    <glyph glyph-name="z" unicode="z" horiz-adv-x="365" 
d="M336 353v-17l-225 -319h110q54 0 80 20.5t27 70.5h17l-9 -108h-306v17l225 319h-99q-46 0 -75.5 -23t-33.5 -63h-17l9 103h297z" />
    <glyph glyph-name="braceleft" unicode="{" horiz-adv-x="480" 
d="M140 176v22q52 8 84 39.5t32 74.5q0 21 -10 65q-11 42 -11 80q0 68 47.5 120t122.5 66l4 -18q-53 -12 -82 -41.5t-29 -70.5q0 -28 11 -81q10 -58 10 -75q0 -54 -36.5 -98.5t-102.5 -71.5q66 -27 102.5 -71.5t36.5 -98.5q0 -17 -10 -75q-11 -53 -11 -81q0 -41 29 -70.5
t82 -41.5l-4 -18q-75 14 -122.5 66t-47.5 120q0 38 11 80q10 46 10 65q0 43 -32 74.5t-84 39.5z" />
    <glyph glyph-name="bar" unicode="|" horiz-adv-x="496" 
d="M226 595h44v-831h-44v831z" />
    <glyph glyph-name="braceright" unicode="}" horiz-adv-x="480" 
d="M340 198v-22q-52 -8 -84 -39.5t-32 -74.5q0 -23 11 -65q10 -46 10 -80q0 -68 -47.5 -120t-122.5 -66l-4 18q53 12 82 41.5t29 70.5q0 23 -10 81q-11 53 -11 75q0 54 36.5 98.5t102.5 71.5q-66 27 -102.5 71.5t-36.5 98.5q0 22 11 75q10 58 10 81q0 41 -29 70.5t-82 41.5
l4 18q75 -14 122.5 -66t47.5 -120q0 -34 -10 -80q-11 -40 -11 -65q0 -43 32 -74.5t84 -39.5z" />
    <glyph glyph-name="asciitilde" unicode="~" horiz-adv-x="667" 
d="M572 392h23q-2 -62 -35.5 -101t-86.5 -39q-37 0 -148 44.5t-140 44.5q-75 0 -90 -88h-23q-2 59 31.5 99.5t89.5 40.5q38 0 148 -45.5t142 -45.5q37 0 61 23.5t28 66.5z" />
    <glyph glyph-name="exclamdown" unicode="&#xa1;" horiz-adv-x="292" 
d="M137 182h16l26 -358q3 -45 3 -58q0 -23 -11 -37t-28 -14q-18 0 -29.5 14t-11.5 37q0 8 1 19t2.5 23t1.5 16zM146 237q-20 0 -33.5 13.5t-13.5 33.5t14 34t33 14q20 0 34 -14t14 -34q0 -19 -14 -33t-34 -14z" />
    <glyph glyph-name="cent" unicode="&#xa2;" horiz-adv-x="417" 
d="M331 517l-51 -159q14 -2 30 -8t23 -6q14 0 25 20h17v-125h-17q-18 78 -84 99l-93 -289q33 -30 73 -30q75 0 131 74v-26q-59 -78 -156 -78q-37 0 -64 10l-43 -133h-17l45 139q-99 45 -99 163q0 90 64 149t149 44l50 156h17zM168 61l90 281q-61 10 -99.5 -32.5
t-38.5 -114.5q0 -81 48 -134z" />
    <glyph glyph-name="sterling" unicode="&#xa3;" 
d="M322 219v-22h-108q-5 -62 -24 -100q37 -9 93 -31t81 -22q23 0 38.5 20t17.5 59h16q10 -51 -26.5 -92.5t-86.5 -41.5q-35 0 -79 18.5t-75 46.5q-17 -29 -44.5 -47t-53.5 -18q-22 0 -35 9t-13 25q0 29 37 53.5t90 20.5q12 46 0 100h-106v22h106q-17 57 -17 131
q0 66 37 107.5t96 41.5q79 0 122 -78l-16 -8q-38 62 -84 62q-37 0 -58 -29t-21 -80q0 -33 2.5 -76t2.5 -71h108zM139 67q-15 5 -28 5q-25 0 -47 -13.5t-22 -28.5q0 -9 6.5 -15t16.5 -6q21 0 41.5 16t32.5 42z" />
    <glyph glyph-name="currency" unicode="&#xa4;" horiz-adv-x="678" 
d="M477 488l60 60l30 -30l-60 -60q49 -57 49 -138q0 -82 -49 -138l60 -60l-30 -30l-61 61q-53 -50 -137 -50q-75 0 -138 49l-60 -60l-30 30l60 60q-49 58 -49 138q0 77 49 138l-60 60l30 30l60 -60q64 49 138 49q76 0 138 -49zM339 493q-72 0 -122.5 -50.5t-50.5 -122.5
t50.5 -122.5t122.5 -50.5t122.5 50.5t50.5 122.5t-50.5 122.5t-122.5 50.5z" />
    <glyph glyph-name="yen" unicode="&#xa5;" horiz-adv-x="563" 
d="M318 288v-102h221v-28h-221v-50q0 -52 13 -71.5t50 -19.5v-17h-209v17q37 0 53.5 17.5t16.5 73.5v50h-221v28h221v102h-221v28h219l-104 162q-31 48 -49.5 62t-52.5 16v17h224v-17q-46 0 -56.5 -15t9.5 -42l95 -149h4l73 120q22 32 19 59t-37 27v17h157v-17
q-32 -2 -49 -14.5t-42 -50.5l-111 -175h219v-28h-221z" />
    <glyph glyph-name="brokenbar" unicode="&#xa6;" horiz-adv-x="496" 
d="M226 115h44v-351h-44v351zM226 595h44v-352h-44v352z" />
    <glyph glyph-name="section" unicode="&#xa7;" horiz-adv-x="417" 
d="M314 268q47 -47 47 -109q0 -39 -17 -71.5t-58 -70.5q32 -36 44.5 -60.5t12.5 -52.5q0 -56 -39.5 -91.5t-102.5 -35.5q-49 0 -85.5 28t-36.5 65q0 19 10 30.5t26 11.5q14 0 22.5 -9.5t8.5 -24.5q0 -9 -5.5 -24t-5.5 -19q0 -17 19 -27.5t49 -10.5q44 0 70.5 20t26.5 54
q0 32 -28.5 64.5t-80.5 73t-71 59.5q-39 39 -52 64.5t-13 60.5q0 76 77 143q-57 52 -57 114q0 54 38 88.5t99 34.5q52 0 89 -27.5t37 -66.5q0 -17 -10 -29t-25 -12q-14 0 -23.5 10t-9.5 24q0 7 5 22t5 23q0 16 -20 26t-51 10q-40 0 -66.5 -20t-26.5 -51q0 -34 29 -67t86 -77
t83 -70zM146 320q-52 -42 -52 -92q0 -24 16 -48.5t33.5 -40.5t61.5 -52t68 -57q51 51 51 91q0 35 -31.5 69.5t-146.5 129.5z" />
    <glyph glyph-name="dieresis" unicode="&#xa8;" horiz-adv-x="333" 
d="M244 568q17 0 29.5 -12.5t12.5 -29.5t-12.5 -29.5t-29.5 -12.5t-29.5 12.5t-12.5 29.5t12.5 29.5t29.5 12.5zM90 568q17 0 29.5 -12.5t12.5 -29.5t-12.5 -29.5t-29.5 -12.5t-29.5 12.5t-12.5 29.5t12.5 29.5t29.5 12.5z" />
    <glyph glyph-name="copyright" unicode="&#xa9;" horiz-adv-x="760" 
d="M534 555l9 -145h-15q-30 120 -139 120q-66 0 -107 -55t-41 -143q0 -89 42 -140t115 -51q43 0 77 20t68 65l10 -7q-62 -107 -170 -107q-90 0 -149 61.5t-59 154.5q0 94 61 158.5t149 64.5q35 0 69.5 -12.5t44.5 -12.5q17 0 20 29h15zM379 644q-132 0 -225.5 -93.5
t-93.5 -225.5t93.5 -226t225.5 -94t226 94t94 226t-94 225.5t-226 93.5zM379 670q143 0 244.5 -101t101.5 -244t-101.5 -244.5t-244.5 -101.5t-244 101.5t-101 244.5t101 244t244 101z" />
    <glyph glyph-name="ordfeminine" unicode="&#xaa;" horiz-adv-x="240" 
d="M217 408h17q0 -20 -13.5 -32t-35.5 -12q-29 0 -40 24q-27 -24 -59 -24q-28 0 -48 16.5t-20 39.5q0 19 13.5 32t28 18t43.5 13t42 13v21q0 19 -13.5 31.5t-34.5 12.5q-39 0 -59 -44h-17q8 32 32 51t57 19t59 -19t26 -58v-93q0 -29 9 -29t13 20zM145 408v72
q-44 -12 -60 -23t-16 -34q0 -16 9.5 -27t23.5 -11q25 0 43 23z" />
    <glyph glyph-name="guillemotleft" unicode="&#xab;" horiz-adv-x="417" 
d="M267 162l129 -183h-20l-189 183l189 183h20zM106 162l129 -183h-20l-189 183l189 183h20z" />
    <glyph glyph-name="logicalnot" unicode="&#xac;" horiz-adv-x="667" 
d="M71 457h525v-269h-43v226h-482v43z" />
    <glyph glyph-name="registered" unicode="&#xae;" horiz-adv-x="760" 
d="M301 312v-107q0 -43 11.5 -56t52.5 -13l-3 -17h-180l4 17q39 0 48.5 11.5t9.5 57.5v257q0 38 -11 51t-42 13h-8l3 15h164q76 0 112 -31t36 -77q0 -43 -29 -71t-80 -33l94 -129q28 -37 45.5 -49.5t50.5 -14.5l-3 -17h-96l-144 193l-17 5zM301 337h21q54 0 83.5 27t29.5 74
q0 38 -24.5 60t-67.5 22q-21 0 -42 -8v-175zM379 644q-132 0 -225.5 -93.5t-93.5 -225.5t93.5 -226t225.5 -94t226 94t94 226t-94 225.5t-226 93.5zM379 670q143 0 244.5 -101t101.5 -244t-101.5 -244.5t-244.5 -101.5t-244 101.5t-101 244.5t101 244t244 101z" />
    <glyph glyph-name="macron" unicode="&#xaf;" horiz-adv-x="333" 
d="M20 531h293v-43h-293v43z" />
    <glyph glyph-name="degree" unicode="&#xb0;" horiz-adv-x="399" 
d="M199 677q62 0 106 -44t44 -106t-44 -106t-106 -44t-106 44t-44 106t44 106t106 44zM199 637q-46 0 -78 -32t-32 -78t32 -78t78 -32t78 32t32 78t-32 78t-78 32z" />
    <glyph glyph-name="plusminus" unicode="&#xb1;" horiz-adv-x="667" 
d="M71 419h241v241h43v-241h241v-43h-241v-241h-43v241h-241v43zM71 25h525v-43h-525v43z" />
    <glyph glyph-name="twosuperior" unicode="&#xb2;" horiz-adv-x="302" 
d="M75 488h-21q1 42 29 70.5t67 28.5q38 0 64.5 -26.5t26.5 -64.5q0 -41 -31.5 -81.5t-115.5 -107.5v-2h155v-35h-205v26q145 121 145 187q0 28 -15.5 43.5t-41.5 15.5q-51 0 -57 -54z" />
    <glyph glyph-name="threesuperior" unicode="&#xb3;" horiz-adv-x="302" 
d="M42 305l15 13q38 -25 70 -25q31 0 50.5 16.5t19.5 39.5q0 28 -18.5 50t-61.5 22h-37v22q105 9 105 68q0 18 -14.5 31.5t-36.5 13.5q-18 0 -30 -7.5t-27 -27.5l-17 7q21 59 88 59q38 0 63 -21.5t25 -53.5q0 -43 -47 -67v-2q62 -25 62 -80q0 -43 -31 -70.5t-81 -27.5
q-30 0 -50 8.5t-47 31.5z" />
    <glyph glyph-name="acute" unicode="&#xb4;" horiz-adv-x="333" 
d="M189 628h55l-101 -200h-19z" />
    <glyph glyph-name="mu" unicode="&#xb5;" horiz-adv-x="510" 
d="M126 30q-2 -54 4 -85t13 -47.5t7 -33.5q0 -16 -11 -27.5t-28 -11.5t-29 11t-12 27q0 15 8 34t15.5 63.5t7.5 122.5v281h68v-253q0 -37 22 -58.5t58 -21.5q51 0 94 58v275h68v-297q0 -29 12.5 -39.5t48.5 -10.5v-17l-129 -7v65h-2q-53 -69 -125 -69q-57 0 -90 41z" />
    <glyph glyph-name="paragraph" unicode="&#xb6;" horiz-adv-x="453" 
d="M351 634h-89v-851h-29v523q-121 -2 -174.5 45.5t-53.5 124.5q0 76 52.5 130.5t157.5 54.5h234l-4 -17q-41 -4 -53 -17.5t-12 -57.5v-786h-29v851z" />
    <glyph glyph-name="periodcentered" unicode="&#xb7;" horiz-adv-x="292" 
d="M146 346q20 0 33.5 -14t13.5 -33q0 -20 -14 -34t-33 -14q-20 0 -34 14.5t-14 33.5t14 33t34 14z" />
    <glyph glyph-name="cedilla" unicode="&#xb8;" horiz-adv-x="333" 
d="M197 8l-17 -62q31 -6 49.5 -26t18.5 -47q0 -40 -37 -63t-105 -20v19q91 1 91 56q0 31 -48 42l31 101h17z" />
    <glyph glyph-name="onesuperior" unicode="&#xb9;" horiz-adv-x="302" 
d="M128 315v194q0 15 -6 15q-1 0 -15 -4.5t-29 -5.5v19q67 29 84 53h13v-269q-1 -17 5 -21t30 -4v-22h-116v22q24 0 29 3.5t5 19.5z" />
    <glyph glyph-name="ordmasculine" unicode="&#xba;" horiz-adv-x="292" 
d="M18 475q0 50 35.5 81t92.5 31t93 -31t36 -81q0 -49 -36 -80t-93 -31t-92.5 31t-35.5 80zM72 475q0 -46 19.5 -71.5t54.5 -25.5t55 25.5t20 71.5t-20 72t-55 26t-54.5 -25.5t-19.5 -72.5z" />
    <glyph glyph-name="guillemotright" unicode="&#xbb;" horiz-adv-x="417" 
d="M311 162l-128 183h20l188 -183l-188 -183h-20zM149 162l-128 183h20l188 -183l-188 -183h-20z" />
    <glyph glyph-name="onequarter" unicode="&#xbc;" horiz-adv-x="750" 
d="M622 318v-191h83v-31h-83v-96h-48v96h-139v22l170 200h17zM574 240l-96 -113h96v113zM179 586v-265q0 -18 5.5 -21.5t29.5 -3.5v-26h-120v26q24 0 29 3.5t5 19.5v186q0 15 -6 15q-2 0 -6 -2.5t-13.5 -5t-24.5 -2.5v23q67 29 84 53h17zM600 587l-420 -587h-30l416 587h34z
" />
    <glyph glyph-name="onehalf" unicode="&#xbd;" horiz-adv-x="750" 
d="M128 319v194q0 15 -6 15q-1 0 -15 -4.5t-29 -5.5v19q67 29 84 53h13v-269q-1 -17 5 -21t30 -4v-22h-116v22q24 0 29 3.5t5 19.5zM600 587l-420 -587h-30l416 587h34zM522 218h-21q1 42 29 70.5t67 28.5q38 0 64.5 -26.5t26.5 -64.5q0 -41 -31.5 -81.5t-115.5 -107.5v-2
h155v-35h-205v26q145 121 145 187q0 28 -15.5 43.5t-41.5 15.5q-51 0 -57 -54z" />
    <glyph glyph-name="threequarters" unicode="&#xbe;" horiz-adv-x="750" 
d="M43 305l15 13q38 -25 70 -25q31 0 50.5 16.5t19.5 39.5q0 28 -18.5 50t-61.5 22h-37v22q105 9 105 68q0 18 -14.5 31.5t-36.5 13.5q-18 0 -30 -7.5t-27 -27.5l-17 7q21 59 88 59q38 0 63 -21.5t25 -53.5q0 -43 -47 -67v-2q62 -25 62 -80q0 -43 -31 -70.5t-81 -27.5
q-30 0 -50 8.5t-47 31.5zM600 587l-420 -587h-30l416 587h34zM622 318v-191h83v-31h-83v-96h-48v96h-139v22l170 200h17zM574 127v113l-96 -113h96z" />
    <glyph glyph-name="questiondown" unicode="&#xbf;" horiz-adv-x="313" 
d="M173 204h19v-111q0 -29 -14 -52.5t-33.5 -40t-39.5 -32t-34 -36.5t-14 -45q0 -35 29 -56.5t76 -21.5q29 0 49 8t47 30v-23q-40 -59 -102 -59q-53 0 -89.5 45.5t-36.5 111.5q0 36 10.5 62.5t26.5 41.5t34.5 30t34.5 28t26.5 35.5t10.5 53.5v31zM174 240q-20 0 -33.5 14
t-13.5 33q0 20 14 34t33 14q20 0 34 -14.5t14 -33.5t-14 -33t-34 -14z" />
    <glyph glyph-name="Agrave" unicode="&#xc0;" horiz-adv-x="594" 
d="M415 73l-52 159h-185l-39 -115q-18 -42 -14 -70.5t45 -29.5v-17h-148v17q37 6 53.5 25.5t31.5 64.5l158 472h59l166 -493q13 -41 29 -55t53 -14v-17h-202v17q64 0 45 56zM350 267l-79 243h-2l-80 -243h161zM275 806l65 -200h-19l-101 200h55z" />
    <glyph glyph-name="Aacute" unicode="&#xc1;" horiz-adv-x="594" 
d="M415 73l-52 159h-185l-39 -115q-18 -42 -14 -70.5t45 -29.5v-17h-148v17q37 6 53.5 25.5t31.5 64.5l158 472h59l166 -493q13 -41 29 -55t53 -14v-17h-202v17q64 0 45 56zM350 267l-79 243h-2l-80 -243h161zM320 806h55l-101 -200h-19z" />
    <glyph glyph-name="Acircumflex" unicode="&#xc2;" horiz-adv-x="594" 
d="M415 73l-52 159h-185l-39 -115q-18 -42 -14 -70.5t45 -29.5v-17h-148v17q37 6 53.5 25.5t31.5 64.5l158 472h59l166 -493q13 -41 29 -55t53 -14v-17h-202v17q64 0 45 56zM350 267l-79 243h-2l-80 -243h161zM311 806l102 -196h-22l-96 130l-92 -130h-20l103 196h25z" />
    <glyph glyph-name="Atilde" unicode="&#xc3;" horiz-adv-x="594" 
d="M415 73l-52 159h-185l-39 -115q-18 -42 -14 -70.5t45 -29.5v-17h-148v17q37 6 53.5 25.5t31.5 64.5l158 472h59l166 -493q13 -41 29 -55t53 -14v-17h-202v17q64 0 45 56zM350 267l-79 243h-2l-80 -243h161zM426 728h18q-1 -35 -23.5 -60t-54.5 -25q-37 0 -87 25
q-52 24 -68 24q-31 0 -41 -46h-19q1 34 25.5 59.5t56.5 25.5q31 0 79 -23q54 -23 76 -23q15 0 25.5 11.5t12.5 31.5z" />
    <glyph glyph-name="Adieresis" unicode="&#xc4;" horiz-adv-x="594" 
d="M415 73l-52 159h-185l-39 -115q-18 -42 -14 -70.5t45 -29.5v-17h-148v17q37 6 53.5 25.5t31.5 64.5l158 472h59l166 -493q13 -41 29 -55t53 -14v-17h-202v17q64 0 45 56zM350 267l-79 243h-2l-80 -243h161zM375 746q17 0 29.5 -12.5t12.5 -29.5t-12.5 -29.5t-29.5 -12.5
t-29.5 12.5t-12.5 29.5t12.5 29.5t29.5 12.5zM221 746q17 0 29.5 -12.5t12.5 -29.5t-12.5 -29.5t-29.5 -12.5t-29.5 12.5t-12.5 29.5t12.5 29.5t29.5 12.5z" />
    <glyph glyph-name="Aring" unicode="&#xc5;" horiz-adv-x="594" 
d="M415 73l-52 159h-185l-39 -115q-18 -42 -14 -70.5t45 -29.5v-17h-148v17q37 6 53.5 25.5t31.5 64.5l158 472h59l166 -493q13 -41 29 -55t53 -14v-17h-202v17q64 0 45 56zM350 267l-79 243h-2l-80 -243h161zM298 757q-26 0 -45 -19t-19 -45t19 -45t45 -19t45 19t19 45
t-19 45t-45 19zM298 781q37 0 62.5 -25.5t25.5 -62.5t-25.5 -62.5t-62.5 -25.5t-62.5 25.5t-25.5 62.5t25.5 62.5t62.5 25.5z" />
    <glyph glyph-name="AE" unicode="&#xc6;" horiz-adv-x="771" 
d="M687 354v-140h-17q-6 33 -20 45.5t-44 12.5h-140v-189q0 -31 12 -43t44 -12h55q79 0 103.5 12.5t42.5 64.5h17l-25 -105h-389v17q35 0 49.5 18t14.5 74v163h-138l-79 -145q-17 -32 -22 -53t6 -36t41 -21v-17h-184v17q44 2 66 22.5t63 95.5l239 438h333v-98h-12
q-9 39 -29 54.5t-53 15.5h-155v-245h129q40 0 54 10t21 44h17zM390 300v228h-2l-121 -228h123z" />
    <glyph glyph-name="Ccedilla" unicode="&#xc7;" horiz-adv-x="615" 
d="M284 -93l25 80q-102 12 -175 86.5t-73 197.5q0 137 84 226.5t212 89.5q41 0 94.5 -12t65.5 -12q22 0 31 18h16v-171h-17q-21 80 -66 117.5t-120 37.5q-100 0 -156 -72t-56 -186q0 -128 60.5 -206.5t157.5 -78.5q135 0 200 126l15 -14q-29 -70 -96.5 -110t-159.5 -37
l-11 -41q31 -6 49.5 -26t18.5 -47q0 -40 -37 -63t-105 -20v19q91 1 91 56q0 31 -48 42z" />
    <glyph glyph-name="Egrave" unicode="&#xc8;" horiz-adv-x="510" 
d="M414 356v-139h-17q-9 37 -22.5 46t-57.5 9h-142v-205q0 -21 9 -30t33 -9h100q66 0 90.5 12.5t48.5 66.5h17l-26 -107h-413v17q36 0 50.5 18t14.5 72v358q0 53 -14 72t-51 19v17h413v-96h-11q-9 45 -27.5 56.5t-68.5 11.5h-165v-245h160q31 0 43.5 10.5t18.5 45.5h17z
M233 806l65 -200h-19l-101 200h55z" />
    <glyph glyph-name="Eacute" unicode="&#xc9;" horiz-adv-x="510" 
d="M414 356v-139h-17q-9 37 -22.5 46t-57.5 9h-142v-205q0 -21 9 -30t33 -9h100q66 0 90.5 12.5t48.5 66.5h17l-26 -107h-413v17q36 0 50.5 18t14.5 72v358q0 53 -14 72t-51 19v17h413v-96h-11q-9 45 -27.5 56.5t-68.5 11.5h-165v-245h160q31 0 43.5 10.5t18.5 45.5h17z
M278 806h55l-101 -200h-19z" />
    <glyph glyph-name="Ecircumflex" unicode="&#xca;" horiz-adv-x="510" 
d="M414 356v-139h-17q-9 37 -22.5 46t-57.5 9h-142v-205q0 -21 9 -30t33 -9h100q66 0 90.5 12.5t48.5 66.5h17l-26 -107h-413v17q36 0 50.5 18t14.5 72v358q0 53 -14 72t-51 19v17h413v-96h-11q-9 45 -27.5 56.5t-68.5 11.5h-165v-245h160q31 0 43.5 10.5t18.5 45.5h17z
M269 806l102 -196h-22l-96 130l-92 -130h-20l103 196h25z" />
    <glyph glyph-name="Edieresis" unicode="&#xcb;" horiz-adv-x="510" 
d="M414 356v-139h-17q-9 37 -22.5 46t-57.5 9h-142v-205q0 -21 9 -30t33 -9h100q66 0 90.5 12.5t48.5 66.5h17l-26 -107h-413v17q36 0 50.5 18t14.5 72v358q0 53 -14 72t-51 19v17h413v-96h-11q-9 45 -27.5 56.5t-68.5 11.5h-165v-245h160q31 0 43.5 10.5t18.5 45.5h17z
M333 746q17 0 29.5 -12.5t12.5 -29.5t-12.5 -29.5t-29.5 -12.5t-29.5 12.5t-12.5 29.5t12.5 29.5t29.5 12.5zM179 746q17 0 29.5 -12.5t12.5 -29.5t-12.5 -29.5t-29.5 -12.5t-29.5 12.5t-12.5 29.5t12.5 29.5t29.5 12.5z" />
    <glyph glyph-name="Igrave" unicode="&#xcc;" horiz-adv-x="260" 
d="M168 465v-357q0 -52 14.5 -71.5t50.5 -19.5v-17h-206v17q36 0 50.5 19t14.5 72v357q0 53 -14 72t-51 19v17h206v-17q-36 0 -50.5 -20t-14.5 -71zM108 806l65 -200h-19l-101 200h55z" />
    <glyph glyph-name="Iacute" unicode="&#xcd;" horiz-adv-x="260" 
d="M168 465v-357q0 -52 14.5 -71.5t50.5 -19.5v-17h-206v17q36 0 50.5 19t14.5 72v357q0 53 -14 72t-51 19v17h206v-17q-36 0 -50.5 -20t-14.5 -71zM153 806h55l-101 -200h-19z" />
    <glyph glyph-name="Icircumflex" unicode="&#xce;" horiz-adv-x="260" 
d="M168 465v-357q0 -52 14.5 -71.5t50.5 -19.5v-17h-206v17q36 0 50.5 19t14.5 72v357q0 53 -14 72t-51 19v17h206v-17q-36 0 -50.5 -20t-14.5 -71zM144 806l102 -196h-22l-96 130l-92 -130h-20l103 196h25z" />
    <glyph glyph-name="Idieresis" unicode="&#xcf;" horiz-adv-x="260" 
d="M168 465v-357q0 -52 14.5 -71.5t50.5 -19.5v-17h-206v17q36 0 50.5 19t14.5 72v357q0 53 -14 72t-51 19v17h206v-17q-36 0 -50.5 -20t-14.5 -71zM208 746q17 0 29.5 -12.5t12.5 -29.5t-12.5 -29.5t-29.5 -12.5t-29.5 12.5t-12.5 29.5t12.5 29.5t29.5 12.5zM54 746
q17 0 29.5 -12.5t12.5 -29.5t-12.5 -29.5t-29.5 -12.5t-29.5 12.5t-12.5 29.5t12.5 29.5t29.5 12.5z" />
    <glyph glyph-name="Eth" unicode="&#xd0;" horiz-adv-x="667" 
d="M96 267h-65v28h65v170q0 51 -14.5 71t-50.5 20v17h271q145 0 231 -88t86 -208q0 -56 -18.5 -104.5t-55.5 -88t-100 -62t-144 -22.5h-270v17q35 0 50 19.5t15 71.5v159zM172 269v-141q0 -65 15 -88t58 -23h59q106 0 166.5 69.5t60.5 189.5q0 54 -14 102t-42.5 89t-78.5 65
t-115 24h-109v-259h176v-28h-176z" />
    <glyph glyph-name="Ntilde" unicode="&#xd1;" horiz-adv-x="667" 
d="M555 466v-466h-17l-404 498h-2v-402q0 -43 17.5 -61t57.5 -18v-17h-174v17q39 0 55 19.5t16 78.5v335q0 51 -18 76.5t-67 29.5v17h147l358 -446h2v335q0 55 -15.5 74.5t-54.5 19.5v17h173v-17q-42 0 -58 -20t-16 -70zM462 728h18q-1 -35 -23.5 -60t-54.5 -25
q-37 0 -87 25q-52 24 -68 24q-31 0 -41 -46h-19q1 34 25.5 59.5t56.5 25.5q31 0 79 -23q54 -23 76 -23q15 0 25.5 11.5t12.5 31.5z" />
    <glyph glyph-name="Ograve" unicode="&#xd2;" horiz-adv-x="729" 
d="M59 289q0 127 88 212.5t219 85.5q128 0 216 -86.5t88 -211.5q0 -127 -89 -215t-217 -88t-216.5 88t-88.5 215zM147 288q0 -125 59.5 -202.5t156.5 -77.5q102 0 160.5 82t58.5 194q0 131 -61 206t-153 75q-101 0 -161 -76t-60 -201zM342 806l65 -200h-19l-101 200h55z" />
    <glyph glyph-name="Oacute" unicode="&#xd3;" horiz-adv-x="729" 
d="M59 289q0 127 88 212.5t219 85.5q128 0 216 -86.5t88 -211.5q0 -127 -89 -215t-217 -88t-216.5 88t-88.5 215zM147 288q0 -125 59.5 -202.5t156.5 -77.5q102 0 160.5 82t58.5 194q0 131 -61 206t-153 75q-101 0 -161 -76t-60 -201zM387 806h55l-101 -200h-19z" />
    <glyph glyph-name="Ocircumflex" unicode="&#xd4;" horiz-adv-x="729" 
d="M59 289q0 127 88 212.5t219 85.5q128 0 216 -86.5t88 -211.5q0 -127 -89 -215t-217 -88t-216.5 88t-88.5 215zM147 288q0 -125 59.5 -202.5t156.5 -77.5q102 0 160.5 82t58.5 194q0 131 -61 206t-153 75q-101 0 -161 -76t-60 -201zM378 806l102 -196h-22l-96 130
l-92 -130h-20l103 196h25z" />
    <glyph glyph-name="Otilde" unicode="&#xd5;" horiz-adv-x="729" 
d="M59 289q0 127 88 212.5t219 85.5q128 0 216 -86.5t88 -211.5q0 -127 -89 -215t-217 -88t-216.5 88t-88.5 215zM147 288q0 -125 59.5 -202.5t156.5 -77.5q102 0 160.5 82t58.5 194q0 131 -61 206t-153 75q-101 0 -161 -76t-60 -201zM493 728h18q-1 -35 -23.5 -60
t-54.5 -25q-37 0 -87 25q-52 24 -68 24q-31 0 -41 -46h-19q1 34 25.5 59.5t56.5 25.5q31 0 79 -23q54 -23 76 -23q15 0 25.5 11.5t12.5 31.5z" />
    <glyph glyph-name="Odieresis" unicode="&#xd6;" horiz-adv-x="729" 
d="M59 289q0 127 88 212.5t219 85.5q128 0 216 -86.5t88 -211.5q0 -127 -89 -215t-217 -88t-216.5 88t-88.5 215zM147 288q0 -125 59.5 -202.5t156.5 -77.5q102 0 160.5 82t58.5 194q0 131 -61 206t-153 75q-101 0 -161 -76t-60 -201zM442 746q17 0 29.5 -12.5t12.5 -29.5
t-12.5 -29.5t-29.5 -12.5t-29.5 12.5t-12.5 29.5t12.5 29.5t29.5 12.5zM288 746q17 0 29.5 -12.5t12.5 -29.5t-12.5 -29.5t-29.5 -12.5t-29.5 12.5t-12.5 29.5t12.5 29.5t29.5 12.5z" />
    <glyph glyph-name="multiply" unicode="&#xd7;" horiz-adv-x="668" 
d="M128 555l206 -206l206 206l30 -30l-206 -206l206 -206l-30 -30l-206 206l-206 -206l-30 30l206 206l-206 206z" />
    <glyph glyph-name="Oslash" unicode="&#xd8;" horiz-adv-x="729" 
d="M189 106l337 381q-27 39 -69 58.5t-89 19.5q-101 0 -161 -77t-60 -205q0 -101 42 -177zM167 55l-80 -90l-12 12l80 90q-45 41 -70.5 99.5t-25.5 122.5q0 127 88 212.5t219 85.5q112 0 191 -66l58 66l12 -14l-56 -63q99 -88 99 -221q0 -127 -89 -215t-217 -88
q-106 0 -197 69zM537 471l-338 -380q56 -83 164 -83q69 0 120 41t75 103.5t24 136.5q0 111 -45 182z" />
    <glyph glyph-name="Ugrave" unicode="&#xd9;" horiz-adv-x="667" 
d="M488 0v80q-81 -94 -191 -94q-97 0 -146 57.5t-49 139.5v282q0 55 -14.5 73t-50.5 18v17h207v-17q-37 0 -51.5 -18.5t-14.5 -71.5v-290q0 -68 37.5 -109.5t108.5 -41.5q103 0 164 95v345q0 50 -13.5 70t-47.5 21v17h202v-17q-36 0 -50.5 -20t-14.5 -71v-357
q0 -54 15 -72.5t50 -18.5v-17h-141zM311 806l65 -200h-19l-101 200h55z" />
    <glyph glyph-name="Uacute" unicode="&#xda;" horiz-adv-x="667" 
d="M488 0v80q-81 -94 -191 -94q-97 0 -146 57.5t-49 139.5v282q0 55 -14.5 73t-50.5 18v17h207v-17q-37 0 -51.5 -18.5t-14.5 -71.5v-290q0 -68 37.5 -109.5t108.5 -41.5q103 0 164 95v345q0 50 -13.5 70t-47.5 21v17h202v-17q-36 0 -50.5 -20t-14.5 -71v-357
q0 -54 15 -72.5t50 -18.5v-17h-141zM356 806h55l-101 -200h-19z" />
    <glyph glyph-name="Ucircumflex" unicode="&#xdb;" horiz-adv-x="667" 
d="M488 0v80q-81 -94 -191 -94q-97 0 -146 57.5t-49 139.5v282q0 55 -14.5 73t-50.5 18v17h207v-17q-37 0 -51.5 -18.5t-14.5 -71.5v-290q0 -68 37.5 -109.5t108.5 -41.5q103 0 164 95v345q0 50 -13.5 70t-47.5 21v17h202v-17q-36 0 -50.5 -20t-14.5 -71v-357
q0 -54 15 -72.5t50 -18.5v-17h-141zM347 806l102 -196h-22l-96 130l-92 -130h-20l103 196h25z" />
    <glyph glyph-name="Udieresis" unicode="&#xdc;" horiz-adv-x="667" 
d="M488 0v80q-81 -94 -191 -94q-97 0 -146 57.5t-49 139.5v282q0 55 -14.5 73t-50.5 18v17h207v-17q-37 0 -51.5 -18.5t-14.5 -71.5v-290q0 -68 37.5 -109.5t108.5 -41.5q103 0 164 95v345q0 50 -13.5 70t-47.5 21v17h202v-17q-36 0 -50.5 -20t-14.5 -71v-357
q0 -54 15 -72.5t50 -18.5v-17h-141zM411 746q17 0 29.5 -12.5t12.5 -29.5t-12.5 -29.5t-29.5 -12.5t-29.5 12.5t-12.5 29.5t12.5 29.5t29.5 12.5zM257 746q17 0 29.5 -12.5t12.5 -29.5t-12.5 -29.5t-29.5 -12.5t-29.5 12.5t-12.5 29.5t12.5 29.5t29.5 12.5z" />
    <glyph glyph-name="Yacute" unicode="&#xdd;" horiz-adv-x="563" 
d="M318 288v-180q0 -52 13 -71.5t50 -19.5v-17h-209v17q37 0 53.5 17t16.5 74v180l-122 190q-30 47 -49 61.5t-53 16.5v17h224v-17q-84 0 -47 -57l113 -174l91 144q23 34 19.5 60.5t-37.5 26.5v17h157v-17q-33 -2 -50 -14.5t-41 -50.5zM304 806h55l-101 -200h-19z" />
    <glyph glyph-name="Thorn" unicode="&#xde;" horiz-adv-x="500" 
d="M103 106v359q0 52 -14 71.5t-51 19.5v17h206v-17q-33 0 -49 -18t-16 -71v-25h68q110 0 166 -48.5t56 -114.5q0 -71 -52.5 -109.5t-149.5 -38.5q-38 0 -88 6v-29q0 -52 14 -71.5t51 -19.5v-17h-206v17q33 0 49 18t16 71zM179 420v-257q29 -10 71 -10q64 0 101.5 33
t37.5 91q0 55 -34 99t-105 44h-71z" />
    <glyph glyph-name="germandbls" unicode="&#xdf;" 
d="M134 432v-375q0 -22 10.5 -30t41.5 -10v-17h-180v17q39 0 49.5 11.5t10.5 48.5v338q0 108 48.5 161t125.5 53q76 0 120 -49t44 -102q0 -102 -125 -141v-2q71 -11 109 -53.5t38 -110.5q0 -80 -44 -127t-119 -47q-17 0 -36 3l-11 71h18q16 -55 48 -55q33 0 51.5 38.5
t18.5 105.5q0 90 -32.5 128.5t-103.5 38.5v17q64 6 89 35.5t25 98.5q0 130 -100 130q-54 0 -75 -40t-21 -136z" />
    <glyph glyph-name="agrave" unicode="&#xe0;" horiz-adv-x="365" 
d="M294 234v-152q0 -31 4 -43t16 -12q13 0 24 34h17q-2 -33 -20.5 -52.5t-48.5 -19.5q-43 0 -60 50q-26 -28 -46.5 -39t-48.5 -11q-41 0 -71 27.5t-30 66.5q0 45 34 68.5t89.5 38t72.5 24.5v26q0 38 -21 62t-58 24q-32 0 -57.5 -19.5t-36.5 -56.5l-18 5q11 49 47 79t84 30
q51 0 89.5 -32t38.5 -98zM226 72v120q-15 -6 -38.5 -14t-36 -13.5t-26.5 -14.5t-20 -23t-6 -35q0 -27 16 -46t38 -19q18 0 40.5 12t32.5 33zM160 628l65 -200h-19l-101 200h55z" />
    <glyph glyph-name="aacute" unicode="&#xe1;" horiz-adv-x="365" 
d="M294 234v-152q0 -31 4 -43t16 -12q13 0 24 34h17q-2 -33 -20.5 -52.5t-48.5 -19.5q-43 0 -60 50q-26 -28 -46.5 -39t-48.5 -11q-41 0 -71 27.5t-30 66.5q0 45 34 68.5t89.5 38t72.5 24.5v26q0 38 -21 62t-58 24q-32 0 -57.5 -19.5t-36.5 -56.5l-18 5q11 49 47 79t84 30
q51 0 89.5 -32t38.5 -98zM226 72v120q-15 -6 -38.5 -14t-36 -13.5t-26.5 -14.5t-20 -23t-6 -35q0 -27 16 -46t38 -19q18 0 40.5 12t32.5 33zM205 628h55l-101 -200h-19z" />
    <glyph glyph-name="acircumflex" unicode="&#xe2;" horiz-adv-x="365" 
d="M294 234v-152q0 -31 4 -43t16 -12q13 0 24 34h17q-2 -33 -20.5 -52.5t-48.5 -19.5q-43 0 -60 50q-26 -28 -46.5 -39t-48.5 -11q-41 0 -71 27.5t-30 66.5q0 45 34 68.5t89.5 38t72.5 24.5v26q0 38 -21 62t-58 24q-32 0 -57.5 -19.5t-36.5 -56.5l-18 5q11 49 47 79t84 30
q51 0 89.5 -32t38.5 -98zM226 72v120q-15 -6 -38.5 -14t-36 -13.5t-26.5 -14.5t-20 -23t-6 -35q0 -27 16 -46t38 -19q18 0 40.5 12t32.5 33zM196 628l102 -196h-22l-96 130l-92 -130h-20l103 196h25z" />
    <glyph glyph-name="atilde" unicode="&#xe3;" horiz-adv-x="365" 
d="M294 234v-152q0 -31 4 -43t16 -12q13 0 24 34h17q-2 -33 -20.5 -52.5t-48.5 -19.5q-43 0 -60 50q-26 -28 -46.5 -39t-48.5 -11q-41 0 -71 27.5t-30 66.5q0 45 34 68.5t89.5 38t72.5 24.5v26q0 38 -21 62t-58 24q-32 0 -57.5 -19.5t-36.5 -56.5l-18 5q11 49 47 79t84 30
q51 0 89.5 -32t38.5 -98zM226 72v120q-15 -6 -38.5 -14t-36 -13.5t-26.5 -14.5t-20 -23t-6 -35q0 -27 16 -46t38 -19q18 0 40.5 12t32.5 33zM311 550h18q-1 -35 -23.5 -60t-54.5 -25q-37 0 -87 25q-52 24 -68 24q-31 0 -41 -46h-19q1 34 25.5 59.5t56.5 25.5q31 0 79 -23
q54 -23 76 -23q15 0 25.5 11.5t12.5 31.5z" />
    <glyph glyph-name="adieresis" unicode="&#xe4;" horiz-adv-x="365" 
d="M294 234v-152q0 -31 4 -43t16 -12q13 0 24 34h17q-2 -33 -20.5 -52.5t-48.5 -19.5q-43 0 -60 50q-26 -28 -46.5 -39t-48.5 -11q-41 0 -71 27.5t-30 66.5q0 45 34 68.5t89.5 38t72.5 24.5v26q0 38 -21 62t-58 24q-32 0 -57.5 -19.5t-36.5 -56.5l-18 5q11 49 47 79t84 30
q51 0 89.5 -32t38.5 -98zM226 72v120q-15 -6 -38.5 -14t-36 -13.5t-26.5 -14.5t-20 -23t-6 -35q0 -27 16 -46t38 -19q18 0 40.5 12t32.5 33zM260 568q17 0 29.5 -12.5t12.5 -29.5t-12.5 -29.5t-29.5 -12.5t-29.5 12.5t-12.5 29.5t12.5 29.5t29.5 12.5zM106 568
q17 0 29.5 -12.5t12.5 -29.5t-12.5 -29.5t-29.5 -12.5t-29.5 12.5t-12.5 29.5t12.5 29.5t29.5 12.5z" />
    <glyph glyph-name="aring" unicode="&#xe5;" horiz-adv-x="365" 
d="M294 234v-152q0 -31 4 -43t16 -12q13 0 24 34h17q-2 -33 -20.5 -52.5t-48.5 -19.5q-43 0 -60 50q-26 -28 -46.5 -39t-48.5 -11q-41 0 -71 27.5t-30 66.5q0 45 34 68.5t89.5 38t72.5 24.5v26q0 38 -21 62t-58 24q-32 0 -57.5 -19.5t-36.5 -56.5l-18 5q11 49 47 79t84 30
q51 0 89.5 -32t38.5 -98zM226 72v120q-15 -6 -38.5 -14t-36 -13.5t-26.5 -14.5t-20 -23t-6 -35q0 -27 16 -46t38 -19q18 0 40.5 12t32.5 33zM183 579q-26 0 -45 -19t-19 -45t19 -45t45 -19t45 19t19 45t-19 45t-45 19zM183 603q37 0 62.5 -25.5t25.5 -62.5t-25.5 -62.5
t-62.5 -25.5t-62.5 25.5t-25.5 62.5t25.5 62.5t62.5 25.5z" />
    <glyph glyph-name="ae" unicode="&#xe6;" horiz-adv-x="615" 
d="M56 252h-17q9 50 48.5 81t94.5 31q68 0 110 -55q33 31 61 43t64 12q61 0 106.5 -38.5t45.5 -109.5h-256q-6 -57 6.5 -99t36 -62t46 -29t44.5 -9q71 0 130 76v-27q-50 -77 -148 -77q-105 0 -166 77q-54 -77 -126 -77q-45 0 -74 27t-29 70q0 35 28 63q24 24 88 35.5
t91 30.5v19q0 41 -23 66t-61 25q-26 0 -55.5 -17t-44.5 -56zM240 102v90q-7 -5 -46 -16.5t-65.5 -31t-26.5 -52.5q0 -27 18.5 -46t43.5 -19t50.5 19t25.5 56zM314 233h189q0 53 -29 82.5t-67 29.5q-41 0 -67 -31.5t-26 -80.5z" />
    <glyph glyph-name="ccedilla" unicode="&#xe7;" horiz-adv-x="385" 
d="M164 -93l26 83q-69 8 -112 56.5t-43 121.5q0 82 53.5 139t129.5 57q31 0 63 -10t37 -10q15 0 24 20h17v-125h-17q-11 48 -43 76.5t-76 28.5q-53 0 -86 -41t-33 -106q0 -73 39.5 -125.5t93.5 -52.5q78 0 132 74v-26q-57 -78 -162 -78l-12 -43q31 -6 49.5 -26t18.5 -47
q0 -40 -37 -63t-105 -20v19q91 1 91 56q0 31 -48 42z" />
    <glyph glyph-name="egrave" unicode="&#xe8;" horiz-adv-x="406" 
d="M367 216h-260q-1 -105 45 -152t96 -47q36 0 61 15t64 59v-26q-32 -41 -65.5 -58.5t-80.5 -17.5q-83 0 -137 52t-54 132t51.5 135.5t126.5 55.5q63 0 110 -44t43 -104zM107 233h193q2 54 -27 82t-68 28q-43 0 -69 -30t-29 -80zM181 628l65 -200h-19l-101 200h55z" />
    <glyph glyph-name="eacute" unicode="&#xe9;" horiz-adv-x="406" 
d="M367 216h-260q-1 -105 45 -152t96 -47q36 0 61 15t64 59v-26q-32 -41 -65.5 -58.5t-80.5 -17.5q-83 0 -137 52t-54 132t51.5 135.5t126.5 55.5q63 0 110 -44t43 -104zM107 233h193q2 54 -27 82t-68 28q-43 0 -69 -30t-29 -80zM226 628h55l-101 -200h-19z" />
    <glyph glyph-name="ecircumflex" unicode="&#xea;" horiz-adv-x="406" 
d="M367 216h-260q-1 -105 45 -152t96 -47q36 0 61 15t64 59v-26q-32 -41 -65.5 -58.5t-80.5 -17.5q-83 0 -137 52t-54 132t51.5 135.5t126.5 55.5q63 0 110 -44t43 -104zM107 233h193q2 54 -27 82t-68 28q-43 0 -69 -30t-29 -80zM217 628l102 -196h-22l-96 130l-92 -130h-20
l103 196h25z" />
    <glyph glyph-name="edieresis" unicode="&#xeb;" horiz-adv-x="406" 
d="M367 216h-260q-1 -105 45 -152t96 -47q36 0 61 15t64 59v-26q-32 -41 -65.5 -58.5t-80.5 -17.5q-83 0 -137 52t-54 132t51.5 135.5t126.5 55.5q63 0 110 -44t43 -104zM107 233h193q2 54 -27 82t-68 28q-43 0 -69 -30t-29 -80zM281 568q17 0 29.5 -12.5t12.5 -29.5
t-12.5 -29.5t-29.5 -12.5t-29.5 12.5t-12.5 29.5t12.5 29.5t29.5 12.5zM127 568q17 0 29.5 -12.5t12.5 -29.5t-12.5 -29.5t-29.5 -12.5t-29.5 12.5t-12.5 29.5t12.5 29.5t29.5 12.5z" />
    <glyph glyph-name="igrave" unicode="&#xec;" horiz-adv-x="229" 
d="M81 66v217q0 35 -13 44t-54 9v17l118 11h17v-298q0 -28 11.5 -38.5t47.5 -10.5v-17h-194v17q41 0 54 9t13 40zM92 628l65 -200h-19l-101 200h55z" />
    <glyph glyph-name="iacute" unicode="&#xed;" horiz-adv-x="229" 
d="M81 66v217q0 35 -13 44t-54 9v17l118 11h17v-298q0 -28 11.5 -38.5t47.5 -10.5v-17h-194v17q41 0 54 9t13 40zM137 628h55l-101 -200h-19z" />
    <glyph glyph-name="icircumflex" unicode="&#xee;" horiz-adv-x="229" 
d="M81 66v217q0 35 -13 44t-54 9v17l118 11h17v-298q0 -28 11.5 -38.5t47.5 -10.5v-17h-194v17q41 0 54 9t13 40zM128 628l102 -196h-22l-96 130l-92 -130h-20l103 196h25z" />
    <glyph glyph-name="idieresis" unicode="&#xef;" horiz-adv-x="229" 
d="M81 66v217q0 35 -13 44t-54 9v17l118 11h17v-298q0 -28 11.5 -38.5t47.5 -10.5v-17h-194v17q41 0 54 9t13 40zM192 568q17 0 29.5 -12.5t12.5 -29.5t-12.5 -29.5t-29.5 -12.5t-29.5 12.5t-12.5 29.5t12.5 29.5t29.5 12.5zM38 568q17 0 29.5 -12.5t12.5 -29.5t-12.5 -29.5
t-29.5 -12.5t-29.5 12.5t-12.5 29.5t12.5 29.5t29.5 12.5z" />
    <glyph glyph-name="eth" unicode="&#xf0;" horiz-adv-x="463" 
d="M111 176q0 -77 32.5 -122t87.5 -45q56 0 88 46t32 128q0 74 -32.5 117.5t-87.5 43.5q-56 0 -88 -45t-32 -123zM393 611l-91 -60q51 -54 81.5 -130.5t37.5 -123.5t7 -85q0 -105 -53.5 -164t-144.5 -59q-83 0 -137.5 53t-54.5 134q0 79 54 133.5t132 54.5q63 0 112 -38
q-25 131 -73 200l-108 -71l-11 16l108 70q-30 41 -79 69l27 18q50 -26 88 -63l94 62z" />
    <glyph glyph-name="ntilde" unicode="&#xf1;" 
d="M385 237v-160q0 -35 11.5 -47.5t48.5 -12.5v-17h-189v17q36 0 48.5 9.5t12.5 34.5v185q0 40 -23.5 60.5t-55.5 20.5q-50 0 -101 -69v-173q0 -42 10.5 -55t49.5 -13v-17h-187v17q37 0 48 11t11 57v199q0 32 -11.5 42t-47.5 10v17l110 11h17v-71q62 71 128 71
q48 0 84 -33.5t36 -93.5zM358 550h18q-1 -35 -23.5 -60t-54.5 -25q-37 0 -87 25q-52 24 -68 24q-31 0 -41 -46h-19q1 34 25.5 59.5t56.5 25.5q31 0 79 -23q54 -23 76 -23q15 0 25.5 11.5t12.5 31.5z" />
    <glyph glyph-name="ograve" unicode="&#xf2;" 
d="M423 176q0 -80 -55.5 -133.5t-138.5 -53.5t-138.5 53.5t-55.5 133.5q0 81 55.5 134.5t138.5 53.5t138.5 -53.5t55.5 -134.5zM349 176q0 72 -31 120t-89 48q-56 0 -88 -45.5t-32 -122.5q0 -73 30.5 -120t89.5 -47t89.5 48.5t30.5 118.5zM207 628l65 -200h-19l-101 200h55z
" />
    <glyph glyph-name="oacute" unicode="&#xf3;" 
d="M423 176q0 -80 -55.5 -133.5t-138.5 -53.5t-138.5 53.5t-55.5 133.5q0 81 55.5 134.5t138.5 53.5t138.5 -53.5t55.5 -134.5zM349 176q0 72 -31 120t-89 48q-56 0 -88 -45.5t-32 -122.5q0 -73 30.5 -120t89.5 -47t89.5 48.5t30.5 118.5zM252 628h55l-101 -200h-19z" />
    <glyph glyph-name="ocircumflex" unicode="&#xf4;" 
d="M423 176q0 -80 -55.5 -133.5t-138.5 -53.5t-138.5 53.5t-55.5 133.5q0 81 55.5 134.5t138.5 53.5t138.5 -53.5t55.5 -134.5zM349 176q0 72 -31 120t-89 48q-56 0 -88 -45.5t-32 -122.5q0 -73 30.5 -120t89.5 -47t89.5 48.5t30.5 118.5zM243 628l102 -196h-22l-96 130
l-92 -130h-20l103 196h25z" />
    <glyph glyph-name="otilde" unicode="&#xf5;" 
d="M423 176q0 -80 -55.5 -133.5t-138.5 -53.5t-138.5 53.5t-55.5 133.5q0 81 55.5 134.5t138.5 53.5t138.5 -53.5t55.5 -134.5zM349 176q0 72 -31 120t-89 48q-56 0 -88 -45.5t-32 -122.5q0 -73 30.5 -120t89.5 -47t89.5 48.5t30.5 118.5zM358 550h18q-1 -35 -23.5 -60
t-54.5 -25q-37 0 -87 25q-52 24 -68 24q-31 0 -41 -46h-19q1 34 25.5 59.5t56.5 25.5q31 0 79 -23q54 -23 76 -23q15 0 25.5 11.5t12.5 31.5z" />
    <glyph glyph-name="odieresis" unicode="&#xf6;" 
d="M423 176q0 -80 -55.5 -133.5t-138.5 -53.5t-138.5 53.5t-55.5 133.5q0 81 55.5 134.5t138.5 53.5t138.5 -53.5t55.5 -134.5zM349 176q0 72 -31 120t-89 48q-56 0 -88 -45.5t-32 -122.5q0 -73 30.5 -120t89.5 -47t89.5 48.5t30.5 118.5zM307 568q17 0 29.5 -12.5
t12.5 -29.5t-12.5 -29.5t-29.5 -12.5t-29.5 12.5t-12.5 29.5t12.5 29.5t29.5 12.5zM153 568q17 0 29.5 -12.5t12.5 -29.5t-12.5 -29.5t-29.5 -12.5t-29.5 12.5t-12.5 29.5t12.5 29.5t29.5 12.5z" />
    <glyph glyph-name="divide" unicode="&#xf7;" horiz-adv-x="668" 
d="M333 152q13 0 21.5 -8.5t8.5 -21.5t-8.5 -21.5t-21.5 -8.5t-21.5 8.5t-8.5 21.5t8.5 21.5t21.5 8.5zM333 547q13 0 21.5 -8.5t8.5 -21.5t-8.5 -21.5t-21.5 -8.5t-21.5 8.5t-8.5 21.5t8.5 21.5t21.5 8.5zM71 341h525v-43h-525v43z" />
    <glyph glyph-name="oslash" unicode="&#xf8;" 
d="M349 328l47 52l12 -11l-48 -52q63 -52 63 -141q0 -80 -55.5 -133.5t-138.5 -53.5q-69 0 -124 41l-55 -62l-13 10l55 62q-57 54 -57 136q0 81 55.5 134.5t138.5 53.5q61 0 120 -36zM127 79l192 214q-31 51 -90 51q-56 0 -88 -45.5t-32 -122.5q0 -58 18 -97zM327 279
l-192 -216q34 -54 94 -54q59 0 89.5 48.5t30.5 118.5q0 67 -22 103z" />
    <glyph glyph-name="ugrave" unicode="&#xf9;" 
d="M385 364v-297q0 -29 12.5 -39.5t48.5 -10.5v-17l-129 -7v65h-2q-53 -69 -124 -69q-52 0 -84 34t-32 85v181q0 26 -13 36.5t-50 10.5v17l114 11h17v-253q0 -37 22 -58.5t58 -21.5q51 0 94 58v191q0 37 -11.5 46t-57.5 10v17l120 11h17zM207 628l65 -200h-19l-101 200h55z
" />
    <glyph glyph-name="uacute" unicode="&#xfa;" 
d="M385 364v-297q0 -29 12.5 -39.5t48.5 -10.5v-17l-129 -7v65h-2q-53 -69 -124 -69q-52 0 -84 34t-32 85v181q0 26 -13 36.5t-50 10.5v17l114 11h17v-253q0 -37 22 -58.5t58 -21.5q51 0 94 58v191q0 37 -11.5 46t-57.5 10v17l120 11h17zM252 628h55l-101 -200h-19z" />
    <glyph glyph-name="ucircumflex" unicode="&#xfb;" 
d="M385 364v-297q0 -29 12.5 -39.5t48.5 -10.5v-17l-129 -7v65h-2q-53 -69 -124 -69q-52 0 -84 34t-32 85v181q0 26 -13 36.5t-50 10.5v17l114 11h17v-253q0 -37 22 -58.5t58 -21.5q51 0 94 58v191q0 37 -11.5 46t-57.5 10v17l120 11h17zM243 628l102 -196h-22l-96 130
l-92 -130h-20l103 196h25z" />
    <glyph glyph-name="udieresis" unicode="&#xfc;" 
d="M385 364v-297q0 -29 12.5 -39.5t48.5 -10.5v-17l-129 -7v65h-2q-53 -69 -124 -69q-52 0 -84 34t-32 85v181q0 26 -13 36.5t-50 10.5v17l114 11h17v-253q0 -37 22 -58.5t58 -21.5q51 0 94 58v191q0 37 -11.5 46t-57.5 10v17l120 11h17zM307 568q17 0 29.5 -12.5
t12.5 -29.5t-12.5 -29.5t-29.5 -12.5t-29.5 12.5t-12.5 29.5t12.5 29.5t29.5 12.5zM153 568q17 0 29.5 -12.5t12.5 -29.5t-12.5 -29.5t-29.5 -12.5t-29.5 12.5t-12.5 29.5t12.5 29.5t29.5 12.5z" />
    <glyph glyph-name="yacute" unicode="&#xfd;" horiz-adv-x="417" 
d="M161 282l85 -200l62 187q12 31 6 48.5t-34 18.5v17h125v-17q-28 0 -47 -19.5t-34 -63.5l-141 -417q-21 -60 -52.5 -94.5t-64.5 -34.5q-19 0 -44 15l23 61q19 -8 34 -8q32 0 52.5 20t37.5 67l46 128l-127 293q-14 31 -28 41.5t-44 11.5v17h170v-17q-45 -7 -25 -54z
M231 628h55l-101 -200h-19z" />
    <glyph glyph-name="thorn" unicode="&#xfe;" 
d="M139 628v-324q61 60 123 60q69 0 114.5 -52.5t45.5 -132.5q0 -82 -50 -136t-126 -54q-53 0 -107 42v-233q0 -34 11.5 -46.5t47.5 -12.5v-17h-189v17q36 0 49 10t13 39v750q0 41 -10 51t-53 10v17l114 12h17zM139 278v-222q42 -44 98 -44q47 0 79 44.5t32 110.5
q0 71 -32 117.5t-81 46.5q-50 0 -96 -53z" />
    <glyph glyph-name="ydieresis" unicode="&#xff;" horiz-adv-x="417" 
d="M161 282l85 -200l62 187q12 31 6 48.5t-34 18.5v17h125v-17q-28 0 -47 -19.5t-34 -63.5l-141 -417q-21 -60 -52.5 -94.5t-64.5 -34.5q-19 0 -44 15l23 61q19 -8 34 -8q32 0 52.5 20t37.5 67l46 128l-127 293q-14 31 -28 41.5t-44 11.5v17h170v-17q-45 -7 -25 -54z
M286 568q17 0 29.5 -12.5t12.5 -29.5t-12.5 -29.5t-29.5 -12.5t-29.5 12.5t-12.5 29.5t12.5 29.5t29.5 12.5zM132 568q17 0 29.5 -12.5t12.5 -29.5t-12.5 -29.5t-29.5 -12.5t-29.5 12.5t-12.5 29.5t12.5 29.5t29.5 12.5z" />
    <glyph glyph-name="dotlessi" unicode="&#x131;" horiz-adv-x="229" 
d="M81 66v217q0 35 -13 44t-54 9v17l118 11h17v-298q0 -28 11.5 -38.5t47.5 -10.5v-17h-194v17q41 0 54 9t13 40z" />
    <glyph glyph-name="Lslash" unicode="&#x141;" horiz-adv-x="500" 
d="M493 125l-35 -125h-415v17q35 0 50 21.5t15 74.5v81l-77 -73v40l77 73v239q0 48 -14.5 65.5t-50.5 17.5v17h205v-17q-35 0 -49.5 -21.5t-14.5 -68.5v-172l156 149v-40l-156 -150v-170q0 -33 14 -44t51 -11h114q52 0 73 18t40 79h17z" />
    <glyph glyph-name="lslash" unicode="&#x142;" horiz-adv-x="240" 
d="M156 628v-260h2l82 101v-35l-84 -101v-266q0 -29 11.5 -39.5t43.5 -10.5h9v-17h-197v17h18q27 0 37 14t10 53v178h-2l-86 -106v35l88 105v255q0 26 -10.5 37t-37.5 11h-23v17l122 12h17z" />
    <glyph glyph-name="OE" unicode="&#x152;" horiz-adv-x="917" 
d="M832 357v-138h-16q-6 31 -20 43t-46 12h-151v-191q0 -31 12.5 -43t46.5 -12h63q67 0 99.5 17t46.5 64h16l-25 -109h-390q-26 0 -58 -1t-40 -1q-128 0 -218 84.5t-90 207.5q0 49 19.5 98.5t57.5 92.5t101.5 70t142.5 27q22 0 80 -2q43 -3 74 -3h321v-95h-14
q-4 38 -27 52.5t-68 14.5h-150v-243h158q25 0 37.5 11.5t21.5 43.5h16zM523 94v379q0 23 -6.5 39t-16 24.5t-28.5 13t-35.5 5.5t-45.5 1q-109 0 -175 -73t-66 -196q0 -120 62 -193.5t181 -73.5q92 0 114 22q16 16 16 52z" />
    <glyph glyph-name="oe" unicode="&#x153;" horiz-adv-x="719" 
d="M684 216h-261q-2 -46 8.5 -83t27 -59t37 -37t38 -20.5t31.5 -5.5q61 0 124 79v-26q-37 -43 -68 -59t-79 -16q-93 0 -155 72q-64 -72 -155 -72q-83 0 -139 53.5t-56 133.5q0 79 55 133.5t135 54.5q100 0 160 -74q54 74 142 74q63 0 110 -43.5t45 -104.5zM424 233h192
q-8 111 -95 111q-43 0 -68 -29.5t-29 -81.5zM349 176q0 73 -29 121t-89 48q-41 0 -69.5 -27t-39.5 -63.5t-11 -78.5q0 -67 29.5 -117t90.5 -50q52 0 85 42.5t33 124.5z" />
    <glyph glyph-name="Scaron" unicode="&#x160;" horiz-adv-x="417" 
d="M356 581v-134h-17q-6 60 -42.5 89t-84.5 29q-46 0 -74.5 -23.5t-28.5 -62.5q0 -37 25 -67.5t57.5 -49t76.5 -46.5t69 -53q50 -50 50 -114q0 -67 -47.5 -115t-115.5 -48q-36 0 -81.5 15t-49.5 15q-15 0 -22 -22h-17v155h17q1 -71 45.5 -106t92.5 -35q52 0 83.5 28t31.5 74
q0 34 -26 65.5t-58.5 51.5t-73.5 46.5t-60 45.5q-49 49 -49 120q0 66 43 107t113 41q35 0 70.5 -11t41.5 -11q7 0 9.5 3t5.5 13h16zM196 610l-102 196h22l96 -130l92 130h20l-103 -196h-25z" />
    <glyph glyph-name="scaron" unicode="&#x161;" horiz-adv-x="313" 
d="M262 255h-20q-5 42 -30 65.5t-58 23.5q-26 0 -42.5 -13t-16.5 -35q0 -25 19 -42t46.5 -29t55 -25.5t46.5 -39t19 -62.5q0 -44 -33 -76.5t-79 -32.5q-22 0 -53 13t-37 13q-21 0 -23 -24h-17v121h17q10 -51 43.5 -77t70.5 -26q26 0 44 17.5t18 43.5q0 33 -29.5 55t-64.5 33
t-64.5 37.5t-29.5 66.5q0 41 32 71.5t76 30.5q20 0 41 -8.5t31 -8.5q14 0 21 17h17v-109zM144 432l-102 196h22l96 -130l92 130h20l-103 -196h-25z" />
    <glyph glyph-name="Ydieresis" unicode="&#x178;" horiz-adv-x="563" 
d="M318 288v-180q0 -52 13 -71.5t50 -19.5v-17h-209v17q37 0 53.5 17t16.5 74v180l-122 190q-30 47 -49 61.5t-53 16.5v17h224v-17q-84 0 -47 -57l113 -174l91 144q23 34 19.5 60.5t-37.5 26.5v17h157v-17q-33 -2 -50 -14.5t-41 -50.5zM359 746q17 0 29.5 -12.5t12.5 -29.5
t-12.5 -29.5t-29.5 -12.5t-29.5 12.5t-12.5 29.5t12.5 29.5t29.5 12.5zM205 746q17 0 29.5 -12.5t12.5 -29.5t-12.5 -29.5t-29.5 -12.5t-29.5 12.5t-12.5 29.5t12.5 29.5t29.5 12.5z" />
    <glyph glyph-name="Zcaron" unicode="&#x17d;" horiz-adv-x="563" 
d="M532 138l-21 -138h-480v15l377 530h-247q-55 0 -78.5 -14.5t-35.5 -55.5h-16l9 98h466v-18l-375 -527h216q72 0 110.5 25.5t57.5 84.5h17zM269 610l-102 196h22l96 -130l92 130h20l-103 -196h-25z" />
    <glyph glyph-name="zcaron" unicode="&#x17e;" horiz-adv-x="365" 
d="M336 353v-17l-225 -319h110q54 0 80 20.5t27 70.5h17l-9 -108h-306v17l225 319h-99q-46 0 -75.5 -23t-33.5 -63h-17l9 103h297zM170 432l-102 196h22l96 -130l92 130h20l-103 -196h-25z" />
    <glyph glyph-name="florin" unicode="&#x192;" horiz-adv-x="625" 
d="M467 329v-27h-73l-66 -355q-11 -57 -32.5 -100t-44.5 -65.5t-51.5 -36t-48 -17t-39.5 -3.5q-74 0 -115 23l16 74h17q19 -77 85 -77q57 0 93 36q44 44 70 183l62 338h-69v27h74l31 143q15 67 58 107.5t104 40.5q28 0 68 -13l3 12h20l-18 -90h-20q-8 37 -23 54t-41 17
q-35 0 -60.5 -32.5t-36.5 -85.5l-32 -153h69z" />
    <glyph glyph-name="circumflex" unicode="&#x2c6;" horiz-adv-x="333" 
d="M180 628l102 -196h-22l-96 130l-92 -130h-20l103 196h25z" />
    <glyph glyph-name="caron" unicode="&#x2c7;" horiz-adv-x="333" 
d="M154 432l-102 196h22l96 -130l92 130h20l-103 -196h-25z" />
    <glyph glyph-name="breve" unicode="&#x2d8;" horiz-adv-x="333" 
d="M290 586q3 -70 -36.5 -107.5t-86.5 -37.5q-50 0 -89 41t-35 104h20q21 -84 103 -84q83 0 104 84h20z" />
    <glyph glyph-name="dotaccent" unicode="&#x2d9;" horiz-adv-x="333" 
d="M167 568q17 0 29.5 -12.5t12.5 -29.5t-12.5 -29.5t-29.5 -12.5t-29.5 12.5t-12.5 29.5t12.5 29.5t29.5 12.5z" />
    <glyph glyph-name="ring" unicode="&#x2da;" horiz-adv-x="333" 
d="M167 579q-26 0 -45 -19t-19 -45t19 -45t45 -19t45 19t19 45t-19 45t-45 19zM167 603q37 0 62.5 -25.5t25.5 -62.5t-25.5 -62.5t-62.5 -25.5t-62.5 25.5t-25.5 62.5t25.5 62.5t62.5 25.5z" />
    <glyph glyph-name="ogonek" unicode="&#x2db;" horiz-adv-x="333" 
d="M140 7h23q-18 -37 -18 -69q0 -28 17.5 -44t48.5 -16q34 0 68 22l13 -13q-53 -52 -114 -52q-38 0 -59.5 20.5t-21.5 55.5q0 47 43 96z" />
    <glyph glyph-name="tilde" unicode="&#x2dc;" horiz-adv-x="333" 
d="M295 550h18q-1 -35 -23.5 -60t-54.5 -25q-37 0 -87 25q-52 24 -68 24q-31 0 -41 -46h-19q1 34 25.5 59.5t56.5 25.5q31 0 79 -23q54 -23 76 -23q15 0 25.5 11.5t12.5 31.5z" />
    <glyph glyph-name="hungarumlaut" unicode="&#x2dd;" horiz-adv-x="333" 
d="M222 628h55l-101 -200h-19zM119 628h55l-101 -200h-19z" />
    <glyph glyph-name="endash" unicode="&#x2013;" horiz-adv-x="500" 
d="M-6 199h512v-22h-512v22z" />
    <glyph glyph-name="emdash" unicode="&#x2014;" horiz-adv-x="1000" 
d="M-6 199h1012v-22h-1012v22z" />
    <glyph glyph-name="quoteleft" unicode="&#x2018;" horiz-adv-x="292" 
d="M208 628v-17q-62 -37 -62 -106q0 -12 9 -17.5t19.5 -6.5t19.5 -10.5t9 -28.5t-12 -30.5t-31 -11.5q-28 0 -44.5 20.5t-16.5 54.5q0 55 29.5 96.5t79.5 56.5z" />
    <glyph glyph-name="quoteright" unicode="&#x2019;" horiz-adv-x="292" 
d="M84 400v17q62 36 62 106q0 12 -9 17.5t-19.5 6.5t-19.5 10.5t-9 28.5t12 30.5t31 11.5q28 0 44.5 -20.5t16.5 -54.5q0 -55 -29.5 -96.5t-79.5 -56.5z" />
    <glyph glyph-name="quotesinglbase" unicode="&#x201a;" horiz-adv-x="292" 
d="M88 -172v17q70 32 70 112q0 12 -3.5 15t-14.5 3q-22 0 -37 14t-15 34q0 19 14 33t34 14q33 0 53.5 -27t20.5 -69q0 -52 -34 -92.5t-88 -53.5z" />
    <glyph glyph-name="quotedblleft" unicode="&#x201c;" horiz-adv-x="313" 
d="M290 628v-17q-38 -19 -54 -44.5t-16 -67.5q0 -12 3.5 -15t14.5 -3q22 0 37 -14t15 -34q0 -19 -14 -33t-34 -14q-33 0 -53.5 27t-20.5 69q0 52 34 92.5t88 53.5zM131 628v-17q-39 -19 -54.5 -44.5t-15.5 -67.5q0 -12 3.5 -15t14.5 -3q22 0 37 -14t15 -34q0 -19 -14 -33
t-34 -14q-33 0 -53.5 27t-20.5 69q0 52 34 92.5t88 53.5z" />
    <glyph glyph-name="quotedblright" unicode="&#x201d;" horiz-adv-x="313" 
d="M23 386v17q39 20 54.5 45t15.5 67q0 12 -3.5 15t-14.5 3q-22 0 -37 14t-15 34q0 19 14 33t34 14q33 0 53.5 -27t20.5 -69q0 -52 -34 -92.5t-88 -53.5zM182 386v17q38 19 54 44.5t16 67.5q0 12 -3.5 15t-14.5 3q-22 0 -37 14t-15 34q0 19 14 33t34 14q33 0 53.5 -27
t20.5 -69q0 -52 -34 -92.5t-88 -53.5z" />
    <glyph glyph-name="quotedblbase" unicode="&#x201e;" horiz-adv-x="313" 
d="M171 -172v17q38 20 54 45t16 67q0 12 -3.5 15t-14.5 3q-22 0 -37 14t-15 34q0 19 14 33t34 14q33 0 53.5 -27t20.5 -69q0 -52 -34 -92.5t-88 -53.5zM18 -172v17q39 20 54.5 45t15.5 67q0 12 -3.5 15t-14.5 3q-22 0 -37 14t-15 34q0 19 14 33t34 14q33 0 53.5 -27
t20.5 -69q0 -52 -34 -92.5t-88 -53.5z" />
    <glyph glyph-name="dagger" unicode="&#x2020;" horiz-adv-x="417" 
d="M252 226q-29 -124 -35 -449h-19q-2 334 -34 449q35 45 35 120q-44 0 -77 -13t-46 -13q-39 0 -39 36q0 16 10 25.5t26 9.5q14 0 53 -13.5t73 -13.5q0 31 -14.5 93.5t-14.5 70.5q0 45 38 45q18 0 29 -11.5t11 -29.5q0 -16 -16.5 -75.5t-16.5 -92.5q39 0 76.5 12.5
t50.5 12.5q38 0 38 -34q0 -14 -10.5 -25t-23.5 -11q-15 0 -56 13.5t-75 13.5q0 -79 37 -120z" />
    <glyph glyph-name="daggerdbl" unicode="&#x2021;" horiz-adv-x="417" 
d="M246 531q0 -27 -13.5 -68t-15.5 -72q27 0 68 11t52 11q15 0 25 -9t10 -23t-11 -23t-28 -9q-12 0 -48.5 12.5t-67.5 12.5q-1 -27 6.5 -48.5t28.5 -50.5q-34 -61 -34 -99q0 -52 33 -102q-33 -61 -34 -97q34 0 68 11t46 11q18 0 29 -8.5t11 -22.5q0 -13 -11 -22.5t-25 -9.5
q-13 0 -55 12t-63 12q0 -32 13.5 -70t13.5 -65q0 -22 -10 -35t-27 -13q-16 0 -26.5 12t-10.5 31q0 26 15.5 64.5t15.5 75.5q-26 -1 -66.5 -12t-54.5 -11q-16 0 -26 9.5t-10 23.5q0 29 40 29q11 0 45.5 -11t71.5 -11q-4 57 -34 97q34 47 34 106q0 21 -6.5 38t-27.5 57
q21 34 28 53t6 46q-32 1 -65 -11t-52 -12q-17 0 -27.5 9t-10.5 23q0 13 10 22t25 9q16 0 53 -12.5t67 -10.5q0 21 -14.5 72t-14.5 69q0 17 11.5 29t26.5 12q36 0 36 -42z" />
    <glyph glyph-name="bullet" unicode="&#x2022;" horiz-adv-x="350" 
d="M175 442q47 0 79.5 -33t32.5 -79t-32.5 -79t-79.5 -33t-79.5 33t-32.5 79t32.5 79t79.5 33z" />
    <glyph glyph-name="ellipsis" unicode="&#x2026;" horiz-adv-x="1000" 
d="M500 70q20 0 33.5 -14t13.5 -33q0 -20 -14 -34t-33 -14q-20 0 -34 14.5t-14 33.5t14 33t34 14zM166 70q20 0 34 -14t14 -33t-14 -33.5t-34 -14.5q-19 0 -33 14t-14 34q0 19 13.5 33t33.5 14zM832 70q20 0 34 -14t14 -33t-14 -33.5t-34 -14.5q-19 0 -33 14t-14 34
q0 19 13.5 33t33.5 14z" />
    <glyph glyph-name="perthousand" unicode="&#x2030;" horiz-adv-x="990" 
d="M152 291q32 0 51 35.5t19 99.5t-19 99.5t-51 35.5q-33 0 -51.5 -35.5t-18.5 -103.5q0 -62 19.5 -96.5t50.5 -34.5zM275 426q0 -70 -35 -115.5t-88 -45.5t-88 45.5t-35 115.5t35 115.5t88 45.5t88 -45.5t35 -115.5zM570 587l-416 -587h-34l416 587h34zM961 156
q0 -70 -35 -115.5t-88 -45.5t-88 45.5t-35 115.5t35 115.5t88 45.5t88 -45.5t35 -115.5zM838 21q32 0 51 35.5t19 99.5t-19 99.5t-51 35.5q-33 0 -51.5 -35.5t-18.5 -103.5q0 -62 19.5 -96.5t50.5 -34.5zM662 156q0 -70 -35 -115.5t-88 -45.5t-88 45.5t-35 115.5t35 115.5
t88 45.5t88 -45.5t35 -115.5zM539 21q32 0 51 35.5t19 99.5t-19 99.5t-51 35.5q-33 0 -51.5 -35.5t-18.5 -103.5q0 -62 19.5 -96.5t50.5 -34.5z" />
    <glyph glyph-name="guilsinglleft" unicode="&#x2039;" horiz-adv-x="260" 
d="M108 162l129 -183h-21l-188 183l188 183h21z" />
    <glyph glyph-name="guilsinglright" unicode="&#x203a;" horiz-adv-x="260" 
d="M152 162l-129 183h21l188 -183l-188 -183h-21z" />
    <glyph glyph-name="fraction" unicode="&#x2044;" horiz-adv-x="146" 
d="M298 587l-420 -587h-30l416 587h34z" />
    <glyph glyph-name="trademark" unicode="&#x2122;" horiz-adv-x="980" 
d="M134 268v17h15q26 0 34.5 15t8.5 59v280h-56q-32 0 -47 -16.5t-17 -49.5h-17v90h334v-90h-17q-5 41 -19.5 53.5t-55.5 12.5h-45v-271q0 -51 9.5 -67t39.5 -16h9v-17h-176zM419 663h118l143 -306l141 306h113v-16h-15q-25 -1 -34 -11t-9 -36v-238q0 -51 9.5 -63t47.5 -14
v-17h-169v17q37 0 47 13.5t10 63.5v242h-2l-150 -336h-8l-155 330h-2v-261q0 -35 9 -43.5t47 -8.5v-17h-141v17q37 0 47.5 9.5t10.5 46.5v251q0 31 -11.5 41.5t-46.5 13.5v16z" />
    <glyph glyph-name="minus" unicode="&#x2212;" horiz-adv-x="667" 
d="M71 341h525v-43h-525v43z" />
    <glyph glyph-name="fi" unicode="&#xfb01;" 
d="M139 327v-263q0 -27 12.5 -37t46.5 -10v-17h-185v17q34 0 46 10t12 42v258h-49v17q29 12 49 24q4 124 52 192t131 68q66 0 124 -28l-37 -92l-15 5q6 45 -18 71t-61 26q-54 0 -81 -41.5t-27 -108.5v-107h140q52 0 84 11h20v-308q0 -22 12 -30.5t44 -8.5v-17h-180v17
q56 0 56 41v214q0 37 -7.5 46t-38.5 9h-130z" />
    <glyph glyph-name="fl" unicode="&#xfb02;" 
d="M137 327v-261q0 -27 13 -38t44 -11v-17h-179v17q30 0 42 9t12 35v266h-49v17q34 14 49 24v77q0 83 44 133t117 50q42 0 92 -25q20 7 45 25h16v-556q0 -32 10 -43.5t46 -11.5v-17h-182v17q38 0 48 11t10 61v411q0 110 -89 110q-41 0 -65 -27.5t-24 -73.5v-156h120v-26
h-120z" />
    </font>
</defs>
</svg>
